<mxfile host="app.diagrams.net" agent="Mozilla/5.0 (Windows NT 10.0; Win64; x64) AppleWebKit/537.36 (KHTML, like Gecko) Chrome/136.0.0.0 Safari/537.36" version="27.0.8">
  <diagram name="Page-1" id="2cc2dc42-3aac-f2a9-1cec-7a8b7cbee084">
    <mxGraphModel dx="2852" dy="2490" grid="1" gridSize="10" guides="1" tooltips="1" connect="1" arrows="1" fold="1" page="1" pageScale="1" pageWidth="1100" pageHeight="850" background="none" math="0" shadow="0">
      <root>
        <mxCell id="0" />
        <mxCell id="1" parent="0" />
        <mxCell id="7026571954dc6520-1" value="" style="strokeWidth=1;shadow=0;dashed=0;align=left;html=1;shape=mxgraph.mockup.containers.browserWindow;rSize=0;strokeColor=#666666;mainText=,;recursiveResize=0;rounded=0;labelBackgroundColor=none;fontFamily=Verdana;fontSize=12" parent="1" vertex="1">
          <mxGeometry x="60" y="25" width="1060" height="855" as="geometry" />
        </mxCell>
        <mxCell id="7026571954dc6520-2" value="Page 1" style="strokeWidth=1;shadow=0;dashed=0;align=center;html=1;shape=mxgraph.mockup.containers.anchor;fontSize=17;fontColor=#666666;align=left;" parent="7026571954dc6520-1" vertex="1">
          <mxGeometry x="60" y="12" width="110" height="26" as="geometry" />
        </mxCell>
        <mxCell id="7026571954dc6520-3" value="https://www.store.example" style="strokeWidth=1;shadow=0;dashed=0;align=center;html=1;shape=mxgraph.mockup.containers.anchor;rSize=0;fontSize=17;fontColor=#666666;align=left;" parent="7026571954dc6520-1" vertex="1">
          <mxGeometry x="130" y="60" width="250" height="26" as="geometry" />
        </mxCell>
        <mxCell id="fCn4wReH6KkzUO8ivvHg-3" value="Logo" style="rounded=1;whiteSpace=wrap;html=1;fillColor=light-dark(#FFFFFF,#00994D);absoluteArcSize=1;" parent="7026571954dc6520-1" vertex="1">
          <mxGeometry x="20" y="130" width="70" height="30" as="geometry" />
        </mxCell>
        <mxCell id="2gGzgF8M-ZaWOMVFMqxc-3" value="Catalog" style="rounded=1;whiteSpace=wrap;html=1;strokeColor=light-dark(#000000,#00994D);fillColor=light-dark(#FFFFFF,#00994D);absoluteArcSize=1;" vertex="1" parent="7026571954dc6520-1">
          <mxGeometry x="100" y="130" width="70" height="30" as="geometry" />
        </mxCell>
        <mxCell id="2gGzgF8M-ZaWOMVFMqxc-18" value="Cart" style="rounded=1;whiteSpace=wrap;html=1;strokeColor=light-dark(#000000,#00994D);fillColor=light-dark(#FFFFFF,#00994D);absoluteArcSize=1;" vertex="1" parent="7026571954dc6520-1">
          <mxGeometry x="970" y="130" width="70" height="30" as="geometry" />
        </mxCell>
        <mxCell id="2gGzgF8M-ZaWOMVFMqxc-146" value="" style="group" vertex="1" connectable="0" parent="7026571954dc6520-1">
          <mxGeometry x="180" y="130" width="780" height="30" as="geometry" />
        </mxCell>
        <mxCell id="fCn4wReH6KkzUO8ivvHg-4" value="Search" style="rounded=1;whiteSpace=wrap;html=1;fillStyle=solid;fillColor=light-dark(#FFFFFF, #121212);fontColor=light-dark(#666666,#959595);fontSize=17;align=left;spacingLeft=5;strokeColor=light-dark(#000000,#00994D);strokeWidth=2;absoluteArcSize=1;" parent="2gGzgF8M-ZaWOMVFMqxc-146" vertex="1">
          <mxGeometry width="780" height="30" as="geometry" />
        </mxCell>
        <mxCell id="2gGzgF8M-ZaWOMVFMqxc-1" value="" style="sketch=0;outlineConnect=0;fontColor=#232F3E;gradientColor=none;fillColor=light-dark(#232F3D,#00994D);strokeColor=none;dashed=0;verticalLabelPosition=bottom;verticalAlign=top;align=center;html=1;fontSize=12;fontStyle=0;aspect=fixed;pointerEvents=1;shape=mxgraph.aws4.magnifying_glass_2;" vertex="1" parent="2gGzgF8M-ZaWOMVFMqxc-146">
          <mxGeometry x="750" y="5" width="20" height="20" as="geometry" />
        </mxCell>
        <mxCell id="2gGzgF8M-ZaWOMVFMqxc-337" value="" style="group;strokeWidth=1;strokeColor=none;perimeterSpacing=1;" vertex="1" connectable="0" parent="7026571954dc6520-1">
          <mxGeometry x="100" y="185" width="200" height="300" as="geometry" />
        </mxCell>
        <mxCell id="2gGzgF8M-ZaWOMVFMqxc-338" value="" style="group" vertex="1" connectable="0" parent="2gGzgF8M-ZaWOMVFMqxc-337">
          <mxGeometry width="200" height="300" as="geometry" />
        </mxCell>
        <mxCell id="2gGzgF8M-ZaWOMVFMqxc-339" value="" style="rounded=1;whiteSpace=wrap;html=1;perimeterSpacing=0;absoluteArcSize=1;strokeWidth=2;strokeColor=light-dark(#000000,#00994D);" vertex="1" parent="2gGzgF8M-ZaWOMVFMqxc-338">
          <mxGeometry width="200" height="300" as="geometry" />
        </mxCell>
        <mxCell id="2gGzgF8M-ZaWOMVFMqxc-340" value="" style="line;strokeWidth=1;html=1;strokeColor=light-dark(#000000,#00994D);" vertex="1" parent="2gGzgF8M-ZaWOMVFMqxc-338">
          <mxGeometry y="195" width="200" height="10" as="geometry" />
        </mxCell>
        <mxCell id="2gGzgF8M-ZaWOMVFMqxc-341" value="&lt;font style=&quot;font-size: 20px;&quot;&gt;Item name&lt;/font&gt;" style="text;strokeColor=none;align=left;fillColor=none;html=1;verticalAlign=middle;whiteSpace=wrap;rounded=0;" vertex="1" parent="2gGzgF8M-ZaWOMVFMqxc-338">
          <mxGeometry x="10" y="210" width="180" height="30" as="geometry" />
        </mxCell>
        <mxCell id="2gGzgF8M-ZaWOMVFMqxc-342" value="&lt;font style=&quot;font-size: 18px;&quot;&gt;Item price&lt;/font&gt;" style="rounded=1;whiteSpace=wrap;html=1;absoluteArcSize=1;strokeColor=light-dark(#000000,#00994D);fillColor=light-dark(#FFFFFF,#00994D);" vertex="1" parent="2gGzgF8M-ZaWOMVFMqxc-338">
          <mxGeometry x="10" y="250" width="180" height="40" as="geometry" />
        </mxCell>
        <mxCell id="2gGzgF8M-ZaWOMVFMqxc-343" value="" style="html=1;whiteSpace=wrap;shape=isoCube2;backgroundOutline=1;isoAngle=15;" vertex="1" parent="2gGzgF8M-ZaWOMVFMqxc-338">
          <mxGeometry x="55" y="53" width="90" height="100" as="geometry" />
        </mxCell>
        <mxCell id="2gGzgF8M-ZaWOMVFMqxc-344" value="" style="group" vertex="1" connectable="0" parent="7026571954dc6520-1">
          <mxGeometry x="320" y="185" width="200" height="300" as="geometry" />
        </mxCell>
        <mxCell id="2gGzgF8M-ZaWOMVFMqxc-345" value="" style="rounded=1;whiteSpace=wrap;html=1;perimeterSpacing=0;absoluteArcSize=1;strokeWidth=2;strokeColor=light-dark(#000000,#00994D);" vertex="1" parent="2gGzgF8M-ZaWOMVFMqxc-344">
          <mxGeometry width="200" height="300" as="geometry" />
        </mxCell>
        <mxCell id="2gGzgF8M-ZaWOMVFMqxc-346" value="" style="line;strokeWidth=1;html=1;strokeColor=light-dark(#000000,#00994D);" vertex="1" parent="2gGzgF8M-ZaWOMVFMqxc-344">
          <mxGeometry y="195" width="200" height="10" as="geometry" />
        </mxCell>
        <mxCell id="2gGzgF8M-ZaWOMVFMqxc-347" value="&lt;font style=&quot;font-size: 20px;&quot;&gt;Item name&lt;/font&gt;" style="text;strokeColor=none;align=left;fillColor=none;html=1;verticalAlign=middle;whiteSpace=wrap;rounded=0;" vertex="1" parent="2gGzgF8M-ZaWOMVFMqxc-344">
          <mxGeometry x="10" y="210" width="180" height="30" as="geometry" />
        </mxCell>
        <mxCell id="2gGzgF8M-ZaWOMVFMqxc-348" value="&lt;font style=&quot;font-size: 18px;&quot;&gt;Item price&lt;/font&gt;" style="rounded=1;whiteSpace=wrap;html=1;absoluteArcSize=1;strokeColor=light-dark(#000000,#00994D);fillColor=light-dark(#FFFFFF,#00994D);" vertex="1" parent="2gGzgF8M-ZaWOMVFMqxc-344">
          <mxGeometry x="10" y="250" width="180" height="40" as="geometry" />
        </mxCell>
        <mxCell id="2gGzgF8M-ZaWOMVFMqxc-349" value="" style="html=1;whiteSpace=wrap;shape=isoCube2;backgroundOutline=1;isoAngle=15;" vertex="1" parent="2gGzgF8M-ZaWOMVFMqxc-344">
          <mxGeometry x="55" y="53" width="90" height="100" as="geometry" />
        </mxCell>
        <mxCell id="2gGzgF8M-ZaWOMVFMqxc-350" value="" style="group" vertex="1" connectable="0" parent="7026571954dc6520-1">
          <mxGeometry x="540" y="185" width="200" height="300" as="geometry" />
        </mxCell>
        <mxCell id="2gGzgF8M-ZaWOMVFMqxc-351" value="" style="rounded=1;whiteSpace=wrap;html=1;perimeterSpacing=0;absoluteArcSize=1;strokeWidth=2;strokeColor=light-dark(#000000,#00994D);" vertex="1" parent="2gGzgF8M-ZaWOMVFMqxc-350">
          <mxGeometry width="200" height="300" as="geometry" />
        </mxCell>
        <mxCell id="2gGzgF8M-ZaWOMVFMqxc-352" value="" style="line;strokeWidth=1;html=1;strokeColor=light-dark(#000000,#00994D);" vertex="1" parent="2gGzgF8M-ZaWOMVFMqxc-350">
          <mxGeometry y="195" width="200" height="10" as="geometry" />
        </mxCell>
        <mxCell id="2gGzgF8M-ZaWOMVFMqxc-353" value="&lt;font style=&quot;font-size: 20px;&quot;&gt;Item name&lt;/font&gt;" style="text;strokeColor=none;align=left;fillColor=none;html=1;verticalAlign=middle;whiteSpace=wrap;rounded=0;" vertex="1" parent="2gGzgF8M-ZaWOMVFMqxc-350">
          <mxGeometry x="10" y="210" width="180" height="30" as="geometry" />
        </mxCell>
        <mxCell id="2gGzgF8M-ZaWOMVFMqxc-354" value="&lt;font style=&quot;font-size: 18px;&quot;&gt;Item price&lt;/font&gt;" style="rounded=1;whiteSpace=wrap;html=1;absoluteArcSize=1;strokeColor=light-dark(#000000,#00994D);fillColor=light-dark(#FFFFFF,#00994D);" vertex="1" parent="2gGzgF8M-ZaWOMVFMqxc-350">
          <mxGeometry x="10" y="250" width="180" height="40" as="geometry" />
        </mxCell>
        <mxCell id="2gGzgF8M-ZaWOMVFMqxc-355" value="" style="html=1;whiteSpace=wrap;shape=isoCube2;backgroundOutline=1;isoAngle=15;" vertex="1" parent="2gGzgF8M-ZaWOMVFMqxc-350">
          <mxGeometry x="55" y="53" width="90" height="100" as="geometry" />
        </mxCell>
        <mxCell id="2gGzgF8M-ZaWOMVFMqxc-356" value="" style="group" vertex="1" connectable="0" parent="7026571954dc6520-1">
          <mxGeometry x="760" y="185" width="200" height="300" as="geometry" />
        </mxCell>
        <mxCell id="2gGzgF8M-ZaWOMVFMqxc-357" value="" style="rounded=1;whiteSpace=wrap;html=1;perimeterSpacing=0;absoluteArcSize=1;strokeWidth=2;strokeColor=light-dark(#000000,#00994D);" vertex="1" parent="2gGzgF8M-ZaWOMVFMqxc-356">
          <mxGeometry width="200" height="300" as="geometry" />
        </mxCell>
        <mxCell id="2gGzgF8M-ZaWOMVFMqxc-358" value="" style="line;strokeWidth=1;html=1;strokeColor=light-dark(#000000,#00994D);" vertex="1" parent="2gGzgF8M-ZaWOMVFMqxc-356">
          <mxGeometry y="195" width="200" height="10" as="geometry" />
        </mxCell>
        <mxCell id="2gGzgF8M-ZaWOMVFMqxc-359" value="&lt;font style=&quot;font-size: 20px;&quot;&gt;Item name&lt;/font&gt;" style="text;strokeColor=none;align=left;fillColor=none;html=1;verticalAlign=middle;whiteSpace=wrap;rounded=0;" vertex="1" parent="2gGzgF8M-ZaWOMVFMqxc-356">
          <mxGeometry x="10" y="210" width="180" height="30" as="geometry" />
        </mxCell>
        <mxCell id="2gGzgF8M-ZaWOMVFMqxc-360" value="&lt;font style=&quot;font-size: 18px;&quot;&gt;Item price&lt;/font&gt;" style="rounded=1;whiteSpace=wrap;html=1;absoluteArcSize=1;strokeColor=light-dark(#000000,#00994D);fillColor=light-dark(#FFFFFF,#00994D);" vertex="1" parent="2gGzgF8M-ZaWOMVFMqxc-356">
          <mxGeometry x="10" y="250" width="180" height="40" as="geometry" />
        </mxCell>
        <mxCell id="2gGzgF8M-ZaWOMVFMqxc-361" value="" style="html=1;whiteSpace=wrap;shape=isoCube2;backgroundOutline=1;isoAngle=15;" vertex="1" parent="2gGzgF8M-ZaWOMVFMqxc-356">
          <mxGeometry x="55" y="53" width="90" height="100" as="geometry" />
        </mxCell>
        <mxCell id="2gGzgF8M-ZaWOMVFMqxc-362" value="" style="group;strokeWidth=1;strokeColor=none;perimeterSpacing=1;" vertex="1" connectable="0" parent="7026571954dc6520-1">
          <mxGeometry x="100" y="535" width="200" height="300" as="geometry" />
        </mxCell>
        <mxCell id="2gGzgF8M-ZaWOMVFMqxc-363" value="" style="group" vertex="1" connectable="0" parent="2gGzgF8M-ZaWOMVFMqxc-362">
          <mxGeometry width="200" height="300" as="geometry" />
        </mxCell>
        <mxCell id="2gGzgF8M-ZaWOMVFMqxc-364" value="" style="rounded=1;whiteSpace=wrap;html=1;perimeterSpacing=0;absoluteArcSize=1;strokeWidth=2;strokeColor=light-dark(#000000,#00994D);" vertex="1" parent="2gGzgF8M-ZaWOMVFMqxc-363">
          <mxGeometry width="200" height="300" as="geometry" />
        </mxCell>
        <mxCell id="2gGzgF8M-ZaWOMVFMqxc-365" value="" style="line;strokeWidth=1;html=1;strokeColor=light-dark(#000000,#00994D);" vertex="1" parent="2gGzgF8M-ZaWOMVFMqxc-363">
          <mxGeometry y="195" width="200" height="10" as="geometry" />
        </mxCell>
        <mxCell id="2gGzgF8M-ZaWOMVFMqxc-366" value="&lt;font style=&quot;font-size: 20px;&quot;&gt;Item name&lt;/font&gt;" style="text;strokeColor=none;align=left;fillColor=none;html=1;verticalAlign=middle;whiteSpace=wrap;rounded=0;" vertex="1" parent="2gGzgF8M-ZaWOMVFMqxc-363">
          <mxGeometry x="10" y="210" width="180" height="30" as="geometry" />
        </mxCell>
        <mxCell id="2gGzgF8M-ZaWOMVFMqxc-367" value="&lt;font style=&quot;font-size: 18px;&quot;&gt;Item price&lt;/font&gt;" style="rounded=1;whiteSpace=wrap;html=1;absoluteArcSize=1;strokeColor=light-dark(#000000,#00994D);fillColor=light-dark(#FFFFFF,#00994D);" vertex="1" parent="2gGzgF8M-ZaWOMVFMqxc-363">
          <mxGeometry x="10" y="250" width="180" height="40" as="geometry" />
        </mxCell>
        <mxCell id="2gGzgF8M-ZaWOMVFMqxc-368" value="" style="html=1;whiteSpace=wrap;shape=isoCube2;backgroundOutline=1;isoAngle=15;" vertex="1" parent="2gGzgF8M-ZaWOMVFMqxc-363">
          <mxGeometry x="55" y="53" width="90" height="100" as="geometry" />
        </mxCell>
        <mxCell id="2gGzgF8M-ZaWOMVFMqxc-369" value="" style="group" vertex="1" connectable="0" parent="7026571954dc6520-1">
          <mxGeometry x="320" y="535" width="200" height="300" as="geometry" />
        </mxCell>
        <mxCell id="2gGzgF8M-ZaWOMVFMqxc-370" value="" style="rounded=1;whiteSpace=wrap;html=1;perimeterSpacing=0;absoluteArcSize=1;strokeWidth=2;strokeColor=light-dark(#000000,#00994D);" vertex="1" parent="2gGzgF8M-ZaWOMVFMqxc-369">
          <mxGeometry width="200" height="300" as="geometry" />
        </mxCell>
        <mxCell id="2gGzgF8M-ZaWOMVFMqxc-371" value="" style="line;strokeWidth=1;html=1;strokeColor=light-dark(#000000,#00994D);" vertex="1" parent="2gGzgF8M-ZaWOMVFMqxc-369">
          <mxGeometry y="195" width="200" height="10" as="geometry" />
        </mxCell>
        <mxCell id="2gGzgF8M-ZaWOMVFMqxc-372" value="&lt;font style=&quot;font-size: 20px;&quot;&gt;Item name&lt;/font&gt;" style="text;strokeColor=none;align=left;fillColor=none;html=1;verticalAlign=middle;whiteSpace=wrap;rounded=0;" vertex="1" parent="2gGzgF8M-ZaWOMVFMqxc-369">
          <mxGeometry x="10" y="210" width="180" height="30" as="geometry" />
        </mxCell>
        <mxCell id="2gGzgF8M-ZaWOMVFMqxc-373" value="&lt;font style=&quot;font-size: 18px;&quot;&gt;Item price&lt;/font&gt;" style="rounded=1;whiteSpace=wrap;html=1;absoluteArcSize=1;strokeColor=light-dark(#000000,#00994D);fillColor=light-dark(#FFFFFF,#00994D);" vertex="1" parent="2gGzgF8M-ZaWOMVFMqxc-369">
          <mxGeometry x="10" y="250" width="180" height="40" as="geometry" />
        </mxCell>
        <mxCell id="2gGzgF8M-ZaWOMVFMqxc-374" value="" style="html=1;whiteSpace=wrap;shape=isoCube2;backgroundOutline=1;isoAngle=15;" vertex="1" parent="2gGzgF8M-ZaWOMVFMqxc-369">
          <mxGeometry x="55" y="53" width="90" height="100" as="geometry" />
        </mxCell>
        <mxCell id="2gGzgF8M-ZaWOMVFMqxc-375" value="" style="group" vertex="1" connectable="0" parent="7026571954dc6520-1">
          <mxGeometry x="540" y="535" width="200" height="300" as="geometry" />
        </mxCell>
        <mxCell id="2gGzgF8M-ZaWOMVFMqxc-376" value="" style="rounded=1;whiteSpace=wrap;html=1;perimeterSpacing=0;absoluteArcSize=1;strokeWidth=2;strokeColor=light-dark(#000000,#00994D);" vertex="1" parent="2gGzgF8M-ZaWOMVFMqxc-375">
          <mxGeometry width="200" height="300" as="geometry" />
        </mxCell>
        <mxCell id="2gGzgF8M-ZaWOMVFMqxc-377" value="" style="line;strokeWidth=1;html=1;strokeColor=light-dark(#000000,#00994D);" vertex="1" parent="2gGzgF8M-ZaWOMVFMqxc-375">
          <mxGeometry y="195" width="200" height="10" as="geometry" />
        </mxCell>
        <mxCell id="2gGzgF8M-ZaWOMVFMqxc-378" value="&lt;font style=&quot;font-size: 20px;&quot;&gt;Item name&lt;/font&gt;" style="text;strokeColor=none;align=left;fillColor=none;html=1;verticalAlign=middle;whiteSpace=wrap;rounded=0;" vertex="1" parent="2gGzgF8M-ZaWOMVFMqxc-375">
          <mxGeometry x="10" y="210" width="180" height="30" as="geometry" />
        </mxCell>
        <mxCell id="2gGzgF8M-ZaWOMVFMqxc-379" value="&lt;font style=&quot;font-size: 18px;&quot;&gt;Item price&lt;/font&gt;" style="rounded=1;whiteSpace=wrap;html=1;absoluteArcSize=1;strokeColor=light-dark(#000000,#00994D);fillColor=light-dark(#FFFFFF,#00994D);" vertex="1" parent="2gGzgF8M-ZaWOMVFMqxc-375">
          <mxGeometry x="10" y="250" width="180" height="40" as="geometry" />
        </mxCell>
        <mxCell id="2gGzgF8M-ZaWOMVFMqxc-380" value="" style="html=1;whiteSpace=wrap;shape=isoCube2;backgroundOutline=1;isoAngle=15;" vertex="1" parent="2gGzgF8M-ZaWOMVFMqxc-375">
          <mxGeometry x="55" y="53" width="90" height="100" as="geometry" />
        </mxCell>
        <mxCell id="2gGzgF8M-ZaWOMVFMqxc-381" value="" style="group" vertex="1" connectable="0" parent="7026571954dc6520-1">
          <mxGeometry x="760" y="535" width="200" height="300" as="geometry" />
        </mxCell>
        <mxCell id="2gGzgF8M-ZaWOMVFMqxc-382" value="" style="rounded=1;whiteSpace=wrap;html=1;perimeterSpacing=0;absoluteArcSize=1;strokeWidth=2;strokeColor=light-dark(#000000,#00994D);" vertex="1" parent="2gGzgF8M-ZaWOMVFMqxc-381">
          <mxGeometry width="200" height="300" as="geometry" />
        </mxCell>
        <mxCell id="2gGzgF8M-ZaWOMVFMqxc-383" value="" style="line;strokeWidth=1;html=1;strokeColor=light-dark(#000000,#00994D);" vertex="1" parent="2gGzgF8M-ZaWOMVFMqxc-381">
          <mxGeometry y="195" width="200" height="10" as="geometry" />
        </mxCell>
        <mxCell id="2gGzgF8M-ZaWOMVFMqxc-384" value="&lt;font style=&quot;font-size: 20px;&quot;&gt;Item name&lt;/font&gt;" style="text;strokeColor=none;align=left;fillColor=none;html=1;verticalAlign=middle;whiteSpace=wrap;rounded=0;" vertex="1" parent="2gGzgF8M-ZaWOMVFMqxc-381">
          <mxGeometry x="10" y="210" width="180" height="30" as="geometry" />
        </mxCell>
        <mxCell id="2gGzgF8M-ZaWOMVFMqxc-385" value="&lt;font style=&quot;font-size: 18px;&quot;&gt;Item price&lt;/font&gt;" style="rounded=1;whiteSpace=wrap;html=1;absoluteArcSize=1;strokeColor=light-dark(#000000,#00994D);fillColor=light-dark(#FFFFFF,#00994D);" vertex="1" parent="2gGzgF8M-ZaWOMVFMqxc-381">
          <mxGeometry x="10" y="250" width="180" height="40" as="geometry" />
        </mxCell>
        <mxCell id="2gGzgF8M-ZaWOMVFMqxc-386" value="" style="html=1;whiteSpace=wrap;shape=isoCube2;backgroundOutline=1;isoAngle=15;" vertex="1" parent="2gGzgF8M-ZaWOMVFMqxc-381">
          <mxGeometry x="55" y="53" width="90" height="100" as="geometry" />
        </mxCell>
        <mxCell id="2gGzgF8M-ZaWOMVFMqxc-88" value="&lt;font style=&quot;font-size: 25px;&quot;&gt;Главная страница&lt;/font&gt;" style="text;html=1;align=center;verticalAlign=middle;resizable=0;points=[];autosize=1;strokeColor=none;fillColor=none;" vertex="1" parent="1">
          <mxGeometry x="40" y="-40" width="230" height="40" as="geometry" />
        </mxCell>
        <mxCell id="2gGzgF8M-ZaWOMVFMqxc-89" value="" style="strokeWidth=1;shadow=0;dashed=0;align=left;html=1;shape=mxgraph.mockup.containers.browserWindow;rSize=0;strokeColor=#666666;mainText=,;recursiveResize=0;rounded=0;labelBackgroundColor=none;fontFamily=Verdana;fontSize=12" vertex="1" parent="1">
          <mxGeometry x="1190" y="25" width="1060" height="855" as="geometry" />
        </mxCell>
        <mxCell id="2gGzgF8M-ZaWOMVFMqxc-90" value="Page 1" style="strokeWidth=1;shadow=0;dashed=0;align=center;html=1;shape=mxgraph.mockup.containers.anchor;fontSize=17;fontColor=#666666;align=left;" vertex="1" parent="2gGzgF8M-ZaWOMVFMqxc-89">
          <mxGeometry x="60" y="12" width="110" height="26" as="geometry" />
        </mxCell>
        <mxCell id="2gGzgF8M-ZaWOMVFMqxc-91" value="https://www.store.example" style="strokeWidth=1;shadow=0;dashed=0;align=center;html=1;shape=mxgraph.mockup.containers.anchor;rSize=0;fontSize=17;fontColor=#666666;align=left;" vertex="1" parent="2gGzgF8M-ZaWOMVFMqxc-89">
          <mxGeometry x="130" y="60" width="250" height="26" as="geometry" />
        </mxCell>
        <mxCell id="2gGzgF8M-ZaWOMVFMqxc-92" value="Logo" style="rounded=1;whiteSpace=wrap;html=1;fillColor=light-dark(#FFFFFF,#00994D);absoluteArcSize=1;" vertex="1" parent="2gGzgF8M-ZaWOMVFMqxc-89">
          <mxGeometry x="20" y="130" width="70" height="30" as="geometry" />
        </mxCell>
        <mxCell id="2gGzgF8M-ZaWOMVFMqxc-94" value="" style="sketch=0;outlineConnect=0;fontColor=#232F3E;gradientColor=none;fillColor=light-dark(#232F3D,#00994D);strokeColor=none;dashed=0;verticalLabelPosition=bottom;verticalAlign=top;align=center;html=1;fontSize=12;fontStyle=0;aspect=fixed;pointerEvents=1;shape=mxgraph.aws4.magnifying_glass_2;" vertex="1" parent="2gGzgF8M-ZaWOMVFMqxc-89">
          <mxGeometry x="930" y="135" width="20" height="20" as="geometry" />
        </mxCell>
        <mxCell id="2gGzgF8M-ZaWOMVFMqxc-95" value="Catalog" style="rounded=1;whiteSpace=wrap;html=1;strokeColor=light-dark(#000000,#00994D);fillColor=light-dark(#FFFFFF,#00994D);absoluteArcSize=1;" vertex="1" parent="2gGzgF8M-ZaWOMVFMqxc-89">
          <mxGeometry x="100" y="130" width="70" height="30" as="geometry" />
        </mxCell>
        <mxCell id="2gGzgF8M-ZaWOMVFMqxc-96" value="Cart" style="rounded=1;whiteSpace=wrap;html=1;strokeColor=light-dark(#000000,#00994D);fillColor=light-dark(#FFFFFF,#00994D);absoluteArcSize=1;" vertex="1" parent="2gGzgF8M-ZaWOMVFMqxc-89">
          <mxGeometry x="970" y="130" width="70" height="30" as="geometry" />
        </mxCell>
        <mxCell id="2gGzgF8M-ZaWOMVFMqxc-97" value="" style="group;strokeWidth=1;strokeColor=none;perimeterSpacing=1;" vertex="1" connectable="0" parent="2gGzgF8M-ZaWOMVFMqxc-89">
          <mxGeometry x="100" y="195" width="200" height="300" as="geometry" />
        </mxCell>
        <mxCell id="2gGzgF8M-ZaWOMVFMqxc-265" value="" style="group" vertex="1" connectable="0" parent="2gGzgF8M-ZaWOMVFMqxc-97">
          <mxGeometry width="200" height="300" as="geometry" />
        </mxCell>
        <mxCell id="2gGzgF8M-ZaWOMVFMqxc-98" value="" style="rounded=1;whiteSpace=wrap;html=1;perimeterSpacing=0;absoluteArcSize=1;strokeWidth=2;strokeColor=light-dark(#000000,#00994D);" vertex="1" parent="2gGzgF8M-ZaWOMVFMqxc-265">
          <mxGeometry width="200" height="300" as="geometry" />
        </mxCell>
        <mxCell id="2gGzgF8M-ZaWOMVFMqxc-99" value="" style="line;strokeWidth=1;html=1;strokeColor=light-dark(#000000,#00994D);" vertex="1" parent="2gGzgF8M-ZaWOMVFMqxc-265">
          <mxGeometry y="195" width="200" height="10" as="geometry" />
        </mxCell>
        <mxCell id="2gGzgF8M-ZaWOMVFMqxc-100" value="&lt;font style=&quot;font-size: 20px;&quot;&gt;Item name&lt;/font&gt;" style="text;strokeColor=none;align=left;fillColor=none;html=1;verticalAlign=middle;whiteSpace=wrap;rounded=0;" vertex="1" parent="2gGzgF8M-ZaWOMVFMqxc-265">
          <mxGeometry x="10" y="210" width="180" height="30" as="geometry" />
        </mxCell>
        <mxCell id="2gGzgF8M-ZaWOMVFMqxc-101" value="&lt;font style=&quot;font-size: 18px;&quot;&gt;Item price&lt;/font&gt;" style="rounded=1;whiteSpace=wrap;html=1;absoluteArcSize=1;strokeColor=light-dark(#000000,#00994D);fillColor=light-dark(#FFFFFF,#00994D);" vertex="1" parent="2gGzgF8M-ZaWOMVFMqxc-265">
          <mxGeometry x="10" y="250" width="180" height="40" as="geometry" />
        </mxCell>
        <mxCell id="2gGzgF8M-ZaWOMVFMqxc-102" value="" style="html=1;whiteSpace=wrap;shape=isoCube2;backgroundOutline=1;isoAngle=15;" vertex="1" parent="2gGzgF8M-ZaWOMVFMqxc-265">
          <mxGeometry x="55" y="53" width="90" height="100" as="geometry" />
        </mxCell>
        <mxCell id="2gGzgF8M-ZaWOMVFMqxc-266" value="" style="group" vertex="1" connectable="0" parent="2gGzgF8M-ZaWOMVFMqxc-89">
          <mxGeometry x="320" y="195" width="200" height="300" as="geometry" />
        </mxCell>
        <mxCell id="2gGzgF8M-ZaWOMVFMqxc-267" value="" style="rounded=1;whiteSpace=wrap;html=1;perimeterSpacing=0;absoluteArcSize=1;strokeWidth=2;strokeColor=light-dark(#000000,#00994D);" vertex="1" parent="2gGzgF8M-ZaWOMVFMqxc-266">
          <mxGeometry width="200" height="300" as="geometry" />
        </mxCell>
        <mxCell id="2gGzgF8M-ZaWOMVFMqxc-268" value="" style="line;strokeWidth=1;html=1;strokeColor=light-dark(#000000,#00994D);" vertex="1" parent="2gGzgF8M-ZaWOMVFMqxc-266">
          <mxGeometry y="195" width="200" height="10" as="geometry" />
        </mxCell>
        <mxCell id="2gGzgF8M-ZaWOMVFMqxc-269" value="&lt;font style=&quot;font-size: 20px;&quot;&gt;Item name&lt;/font&gt;" style="text;strokeColor=none;align=left;fillColor=none;html=1;verticalAlign=middle;whiteSpace=wrap;rounded=0;" vertex="1" parent="2gGzgF8M-ZaWOMVFMqxc-266">
          <mxGeometry x="10" y="210" width="180" height="30" as="geometry" />
        </mxCell>
        <mxCell id="2gGzgF8M-ZaWOMVFMqxc-270" value="&lt;font style=&quot;font-size: 18px;&quot;&gt;Item price&lt;/font&gt;" style="rounded=1;whiteSpace=wrap;html=1;absoluteArcSize=1;strokeColor=light-dark(#000000,#00994D);fillColor=light-dark(#FFFFFF,#00994D);" vertex="1" parent="2gGzgF8M-ZaWOMVFMqxc-266">
          <mxGeometry x="10" y="250" width="180" height="40" as="geometry" />
        </mxCell>
        <mxCell id="2gGzgF8M-ZaWOMVFMqxc-271" value="" style="html=1;whiteSpace=wrap;shape=isoCube2;backgroundOutline=1;isoAngle=15;" vertex="1" parent="2gGzgF8M-ZaWOMVFMqxc-266">
          <mxGeometry x="55" y="53" width="90" height="100" as="geometry" />
        </mxCell>
        <mxCell id="2gGzgF8M-ZaWOMVFMqxc-212" value="" style="line;strokeWidth=1;html=1;strokeColor=light-dark(#000000,#00994D);spacing=1;" vertex="1" parent="2gGzgF8M-ZaWOMVFMqxc-89">
          <mxGeometry x="180" y="155" width="780" height="10" as="geometry" />
        </mxCell>
        <mxCell id="2gGzgF8M-ZaWOMVFMqxc-272" value="" style="group" vertex="1" connectable="0" parent="2gGzgF8M-ZaWOMVFMqxc-89">
          <mxGeometry x="540" y="195" width="200" height="300" as="geometry" />
        </mxCell>
        <mxCell id="2gGzgF8M-ZaWOMVFMqxc-273" value="" style="rounded=1;whiteSpace=wrap;html=1;perimeterSpacing=0;absoluteArcSize=1;strokeWidth=2;strokeColor=light-dark(#000000,#00994D);" vertex="1" parent="2gGzgF8M-ZaWOMVFMqxc-272">
          <mxGeometry width="200" height="300" as="geometry" />
        </mxCell>
        <mxCell id="2gGzgF8M-ZaWOMVFMqxc-274" value="" style="line;strokeWidth=1;html=1;strokeColor=light-dark(#000000,#00994D);" vertex="1" parent="2gGzgF8M-ZaWOMVFMqxc-272">
          <mxGeometry y="195" width="200" height="10" as="geometry" />
        </mxCell>
        <mxCell id="2gGzgF8M-ZaWOMVFMqxc-275" value="&lt;font style=&quot;font-size: 20px;&quot;&gt;Item name&lt;/font&gt;" style="text;strokeColor=none;align=left;fillColor=none;html=1;verticalAlign=middle;whiteSpace=wrap;rounded=0;" vertex="1" parent="2gGzgF8M-ZaWOMVFMqxc-272">
          <mxGeometry x="10" y="210" width="180" height="30" as="geometry" />
        </mxCell>
        <mxCell id="2gGzgF8M-ZaWOMVFMqxc-276" value="&lt;font style=&quot;font-size: 18px;&quot;&gt;Item price&lt;/font&gt;" style="rounded=1;whiteSpace=wrap;html=1;absoluteArcSize=1;strokeColor=light-dark(#000000,#00994D);fillColor=light-dark(#FFFFFF,#00994D);" vertex="1" parent="2gGzgF8M-ZaWOMVFMqxc-272">
          <mxGeometry x="10" y="250" width="180" height="40" as="geometry" />
        </mxCell>
        <mxCell id="2gGzgF8M-ZaWOMVFMqxc-277" value="" style="html=1;whiteSpace=wrap;shape=isoCube2;backgroundOutline=1;isoAngle=15;" vertex="1" parent="2gGzgF8M-ZaWOMVFMqxc-272">
          <mxGeometry x="55" y="53" width="90" height="100" as="geometry" />
        </mxCell>
        <mxCell id="2gGzgF8M-ZaWOMVFMqxc-280" value="" style="group" vertex="1" connectable="0" parent="2gGzgF8M-ZaWOMVFMqxc-89">
          <mxGeometry x="760" y="195" width="200" height="300" as="geometry" />
        </mxCell>
        <mxCell id="2gGzgF8M-ZaWOMVFMqxc-281" value="" style="rounded=1;whiteSpace=wrap;html=1;perimeterSpacing=0;absoluteArcSize=1;strokeWidth=2;strokeColor=light-dark(#000000,#00994D);" vertex="1" parent="2gGzgF8M-ZaWOMVFMqxc-280">
          <mxGeometry width="200" height="300" as="geometry" />
        </mxCell>
        <mxCell id="2gGzgF8M-ZaWOMVFMqxc-282" value="" style="line;strokeWidth=1;html=1;strokeColor=light-dark(#000000,#00994D);" vertex="1" parent="2gGzgF8M-ZaWOMVFMqxc-280">
          <mxGeometry y="195" width="200" height="10" as="geometry" />
        </mxCell>
        <mxCell id="2gGzgF8M-ZaWOMVFMqxc-283" value="&lt;font style=&quot;font-size: 20px;&quot;&gt;Item name&lt;/font&gt;" style="text;strokeColor=none;align=left;fillColor=none;html=1;verticalAlign=middle;whiteSpace=wrap;rounded=0;" vertex="1" parent="2gGzgF8M-ZaWOMVFMqxc-280">
          <mxGeometry x="10" y="210" width="180" height="30" as="geometry" />
        </mxCell>
        <mxCell id="2gGzgF8M-ZaWOMVFMqxc-284" value="&lt;font style=&quot;font-size: 18px;&quot;&gt;Item price&lt;/font&gt;" style="rounded=1;whiteSpace=wrap;html=1;absoluteArcSize=1;strokeColor=light-dark(#000000,#00994D);fillColor=light-dark(#FFFFFF,#00994D);" vertex="1" parent="2gGzgF8M-ZaWOMVFMqxc-280">
          <mxGeometry x="10" y="250" width="180" height="40" as="geometry" />
        </mxCell>
        <mxCell id="2gGzgF8M-ZaWOMVFMqxc-285" value="" style="html=1;whiteSpace=wrap;shape=isoCube2;backgroundOutline=1;isoAngle=15;" vertex="1" parent="2gGzgF8M-ZaWOMVFMqxc-280">
          <mxGeometry x="55" y="53" width="90" height="100" as="geometry" />
        </mxCell>
        <mxCell id="2gGzgF8M-ZaWOMVFMqxc-93" value="Ite&lt;br&gt;Item 1&lt;br&gt;Item 2&lt;br&gt;Item 3" style="rounded=1;whiteSpace=wrap;html=1;fillStyle=solid;fillColor=light-dark(#FFFFFF, #121212);fontColor=light-dark(#666666,#FFFFFF);fontSize=17;align=left;spacingLeft=5;strokeColor=light-dark(#000000,#00994D);strokeWidth=2;absoluteArcSize=1;" vertex="1" parent="2gGzgF8M-ZaWOMVFMqxc-89">
          <mxGeometry x="180" y="130" width="780" height="100" as="geometry" />
        </mxCell>
        <mxCell id="2gGzgF8M-ZaWOMVFMqxc-286" value="" style="group" vertex="1" connectable="0" parent="2gGzgF8M-ZaWOMVFMqxc-89">
          <mxGeometry x="100" y="535" width="200" height="300" as="geometry" />
        </mxCell>
        <mxCell id="2gGzgF8M-ZaWOMVFMqxc-287" value="" style="rounded=1;whiteSpace=wrap;html=1;perimeterSpacing=0;absoluteArcSize=1;strokeWidth=2;strokeColor=light-dark(#000000,#00994D);" vertex="1" parent="2gGzgF8M-ZaWOMVFMqxc-286">
          <mxGeometry width="200" height="300" as="geometry" />
        </mxCell>
        <mxCell id="2gGzgF8M-ZaWOMVFMqxc-288" value="" style="line;strokeWidth=1;html=1;strokeColor=light-dark(#000000,#00994D);" vertex="1" parent="2gGzgF8M-ZaWOMVFMqxc-286">
          <mxGeometry y="195" width="200" height="10" as="geometry" />
        </mxCell>
        <mxCell id="2gGzgF8M-ZaWOMVFMqxc-289" value="&lt;font style=&quot;font-size: 20px;&quot;&gt;Item name&lt;/font&gt;" style="text;strokeColor=none;align=left;fillColor=none;html=1;verticalAlign=middle;whiteSpace=wrap;rounded=0;" vertex="1" parent="2gGzgF8M-ZaWOMVFMqxc-286">
          <mxGeometry x="10" y="210" width="180" height="30" as="geometry" />
        </mxCell>
        <mxCell id="2gGzgF8M-ZaWOMVFMqxc-290" value="&lt;font style=&quot;font-size: 18px;&quot;&gt;Item price&lt;/font&gt;" style="rounded=1;whiteSpace=wrap;html=1;absoluteArcSize=1;strokeColor=light-dark(#000000,#00994D);fillColor=light-dark(#FFFFFF,#00994D);" vertex="1" parent="2gGzgF8M-ZaWOMVFMqxc-286">
          <mxGeometry x="10" y="250" width="180" height="40" as="geometry" />
        </mxCell>
        <mxCell id="2gGzgF8M-ZaWOMVFMqxc-291" value="" style="html=1;whiteSpace=wrap;shape=isoCube2;backgroundOutline=1;isoAngle=15;" vertex="1" parent="2gGzgF8M-ZaWOMVFMqxc-286">
          <mxGeometry x="55" y="53" width="90" height="100" as="geometry" />
        </mxCell>
        <mxCell id="2gGzgF8M-ZaWOMVFMqxc-292" value="" style="group" vertex="1" connectable="0" parent="2gGzgF8M-ZaWOMVFMqxc-89">
          <mxGeometry x="320" y="535" width="200" height="300" as="geometry" />
        </mxCell>
        <mxCell id="2gGzgF8M-ZaWOMVFMqxc-293" value="" style="rounded=1;whiteSpace=wrap;html=1;perimeterSpacing=0;absoluteArcSize=1;strokeWidth=2;strokeColor=light-dark(#000000,#00994D);" vertex="1" parent="2gGzgF8M-ZaWOMVFMqxc-292">
          <mxGeometry width="200" height="300" as="geometry" />
        </mxCell>
        <mxCell id="2gGzgF8M-ZaWOMVFMqxc-294" value="" style="line;strokeWidth=1;html=1;strokeColor=light-dark(#000000,#00994D);" vertex="1" parent="2gGzgF8M-ZaWOMVFMqxc-292">
          <mxGeometry y="195" width="200" height="10" as="geometry" />
        </mxCell>
        <mxCell id="2gGzgF8M-ZaWOMVFMqxc-295" value="&lt;font style=&quot;font-size: 20px;&quot;&gt;Item name&lt;/font&gt;" style="text;strokeColor=none;align=left;fillColor=none;html=1;verticalAlign=middle;whiteSpace=wrap;rounded=0;" vertex="1" parent="2gGzgF8M-ZaWOMVFMqxc-292">
          <mxGeometry x="10" y="210" width="180" height="30" as="geometry" />
        </mxCell>
        <mxCell id="2gGzgF8M-ZaWOMVFMqxc-296" value="&lt;font style=&quot;font-size: 18px;&quot;&gt;Item price&lt;/font&gt;" style="rounded=1;whiteSpace=wrap;html=1;absoluteArcSize=1;strokeColor=light-dark(#000000,#00994D);fillColor=light-dark(#FFFFFF,#00994D);" vertex="1" parent="2gGzgF8M-ZaWOMVFMqxc-292">
          <mxGeometry x="10" y="250" width="180" height="40" as="geometry" />
        </mxCell>
        <mxCell id="2gGzgF8M-ZaWOMVFMqxc-297" value="" style="html=1;whiteSpace=wrap;shape=isoCube2;backgroundOutline=1;isoAngle=15;" vertex="1" parent="2gGzgF8M-ZaWOMVFMqxc-292">
          <mxGeometry x="55" y="53" width="90" height="100" as="geometry" />
        </mxCell>
        <mxCell id="2gGzgF8M-ZaWOMVFMqxc-298" value="" style="group" vertex="1" connectable="0" parent="2gGzgF8M-ZaWOMVFMqxc-89">
          <mxGeometry x="540" y="535" width="200" height="300" as="geometry" />
        </mxCell>
        <mxCell id="2gGzgF8M-ZaWOMVFMqxc-299" value="" style="rounded=1;whiteSpace=wrap;html=1;perimeterSpacing=0;absoluteArcSize=1;strokeWidth=2;strokeColor=light-dark(#000000,#00994D);" vertex="1" parent="2gGzgF8M-ZaWOMVFMqxc-298">
          <mxGeometry width="200" height="300" as="geometry" />
        </mxCell>
        <mxCell id="2gGzgF8M-ZaWOMVFMqxc-300" value="" style="line;strokeWidth=1;html=1;strokeColor=light-dark(#000000,#00994D);" vertex="1" parent="2gGzgF8M-ZaWOMVFMqxc-298">
          <mxGeometry y="195" width="200" height="10" as="geometry" />
        </mxCell>
        <mxCell id="2gGzgF8M-ZaWOMVFMqxc-301" value="&lt;font style=&quot;font-size: 20px;&quot;&gt;Item name&lt;/font&gt;" style="text;strokeColor=none;align=left;fillColor=none;html=1;verticalAlign=middle;whiteSpace=wrap;rounded=0;" vertex="1" parent="2gGzgF8M-ZaWOMVFMqxc-298">
          <mxGeometry x="10" y="210" width="180" height="30" as="geometry" />
        </mxCell>
        <mxCell id="2gGzgF8M-ZaWOMVFMqxc-302" value="&lt;font style=&quot;font-size: 18px;&quot;&gt;Item price&lt;/font&gt;" style="rounded=1;whiteSpace=wrap;html=1;absoluteArcSize=1;strokeColor=light-dark(#000000,#00994D);fillColor=light-dark(#FFFFFF,#00994D);" vertex="1" parent="2gGzgF8M-ZaWOMVFMqxc-298">
          <mxGeometry x="10" y="250" width="180" height="40" as="geometry" />
        </mxCell>
        <mxCell id="2gGzgF8M-ZaWOMVFMqxc-303" value="" style="html=1;whiteSpace=wrap;shape=isoCube2;backgroundOutline=1;isoAngle=15;" vertex="1" parent="2gGzgF8M-ZaWOMVFMqxc-298">
          <mxGeometry x="55" y="53" width="90" height="100" as="geometry" />
        </mxCell>
        <mxCell id="2gGzgF8M-ZaWOMVFMqxc-304" value="" style="group" vertex="1" connectable="0" parent="2gGzgF8M-ZaWOMVFMqxc-89">
          <mxGeometry x="760" y="535" width="200" height="300" as="geometry" />
        </mxCell>
        <mxCell id="2gGzgF8M-ZaWOMVFMqxc-305" value="" style="rounded=1;whiteSpace=wrap;html=1;perimeterSpacing=0;absoluteArcSize=1;strokeWidth=2;strokeColor=light-dark(#000000,#00994D);" vertex="1" parent="2gGzgF8M-ZaWOMVFMqxc-304">
          <mxGeometry width="200" height="300" as="geometry" />
        </mxCell>
        <mxCell id="2gGzgF8M-ZaWOMVFMqxc-306" value="" style="line;strokeWidth=1;html=1;strokeColor=light-dark(#000000,#00994D);" vertex="1" parent="2gGzgF8M-ZaWOMVFMqxc-304">
          <mxGeometry y="195" width="200" height="10" as="geometry" />
        </mxCell>
        <mxCell id="2gGzgF8M-ZaWOMVFMqxc-307" value="&lt;font style=&quot;font-size: 20px;&quot;&gt;Item name&lt;/font&gt;" style="text;strokeColor=none;align=left;fillColor=none;html=1;verticalAlign=middle;whiteSpace=wrap;rounded=0;" vertex="1" parent="2gGzgF8M-ZaWOMVFMqxc-304">
          <mxGeometry x="10" y="210" width="180" height="30" as="geometry" />
        </mxCell>
        <mxCell id="2gGzgF8M-ZaWOMVFMqxc-308" value="&lt;font style=&quot;font-size: 18px;&quot;&gt;Item price&lt;/font&gt;" style="rounded=1;whiteSpace=wrap;html=1;absoluteArcSize=1;strokeColor=light-dark(#000000,#00994D);fillColor=light-dark(#FFFFFF,#00994D);" vertex="1" parent="2gGzgF8M-ZaWOMVFMqxc-304">
          <mxGeometry x="10" y="250" width="180" height="40" as="geometry" />
        </mxCell>
        <mxCell id="2gGzgF8M-ZaWOMVFMqxc-309" value="" style="html=1;whiteSpace=wrap;shape=isoCube2;backgroundOutline=1;isoAngle=15;" vertex="1" parent="2gGzgF8M-ZaWOMVFMqxc-304">
          <mxGeometry x="55" y="53" width="90" height="100" as="geometry" />
        </mxCell>
        <mxCell id="2gGzgF8M-ZaWOMVFMqxc-145" value="&lt;font style=&quot;font-size: 25px;&quot;&gt;Поиск&lt;/font&gt;" style="text;html=1;align=center;verticalAlign=middle;resizable=0;points=[];autosize=1;strokeColor=none;fillColor=none;" vertex="1" parent="1">
          <mxGeometry x="1200" y="-40" width="90" height="40" as="geometry" />
        </mxCell>
        <mxCell id="2gGzgF8M-ZaWOMVFMqxc-148" style="edgeStyle=orthogonalEdgeStyle;rounded=0;orthogonalLoop=1;jettySize=auto;html=1;fillColor=#a20025;strokeColor=#6F0000;" edge="1" parent="1" source="fCn4wReH6KkzUO8ivvHg-4" target="2gGzgF8M-ZaWOMVFMqxc-93">
          <mxGeometry relative="1" as="geometry" />
        </mxCell>
        <mxCell id="2gGzgF8M-ZaWOMVFMqxc-387" value="" style="strokeWidth=1;shadow=0;dashed=0;align=left;html=1;shape=mxgraph.mockup.containers.browserWindow;rSize=0;strokeColor=#666666;mainText=,;recursiveResize=0;rounded=0;labelBackgroundColor=none;fontFamily=Verdana;fontSize=12" vertex="1" parent="1">
          <mxGeometry x="2320" y="20" width="1060" height="855" as="geometry" />
        </mxCell>
        <mxCell id="2gGzgF8M-ZaWOMVFMqxc-388" value="Page 1" style="strokeWidth=1;shadow=0;dashed=0;align=center;html=1;shape=mxgraph.mockup.containers.anchor;fontSize=17;fontColor=#666666;align=left;" vertex="1" parent="2gGzgF8M-ZaWOMVFMqxc-387">
          <mxGeometry x="60" y="12" width="110" height="26" as="geometry" />
        </mxCell>
        <mxCell id="2gGzgF8M-ZaWOMVFMqxc-389" value="https://www.store.example/search/item_1" style="strokeWidth=1;shadow=0;dashed=0;align=center;html=1;shape=mxgraph.mockup.containers.anchor;rSize=0;fontSize=17;fontColor=#666666;align=left;" vertex="1" parent="2gGzgF8M-ZaWOMVFMqxc-387">
          <mxGeometry x="130" y="60" width="250" height="26" as="geometry" />
        </mxCell>
        <mxCell id="2gGzgF8M-ZaWOMVFMqxc-390" value="Logo" style="rounded=1;whiteSpace=wrap;html=1;fillColor=light-dark(#FFFFFF,#00994D);absoluteArcSize=1;" vertex="1" parent="2gGzgF8M-ZaWOMVFMqxc-387">
          <mxGeometry x="20" y="130" width="70" height="30" as="geometry" />
        </mxCell>
        <mxCell id="2gGzgF8M-ZaWOMVFMqxc-391" value="Catalog" style="rounded=1;whiteSpace=wrap;html=1;strokeColor=light-dark(#000000,#00994D);fillColor=light-dark(#FFFFFF,#00994D);absoluteArcSize=1;" vertex="1" parent="2gGzgF8M-ZaWOMVFMqxc-387">
          <mxGeometry x="100" y="130" width="70" height="30" as="geometry" />
        </mxCell>
        <mxCell id="2gGzgF8M-ZaWOMVFMqxc-392" value="Cart" style="rounded=1;whiteSpace=wrap;html=1;strokeColor=light-dark(#000000,#00994D);fillColor=light-dark(#FFFFFF,#00994D);absoluteArcSize=1;" vertex="1" parent="2gGzgF8M-ZaWOMVFMqxc-387">
          <mxGeometry x="970" y="130" width="70" height="30" as="geometry" />
        </mxCell>
        <mxCell id="2gGzgF8M-ZaWOMVFMqxc-393" value="" style="group" vertex="1" connectable="0" parent="2gGzgF8M-ZaWOMVFMqxc-387">
          <mxGeometry x="180" y="130" width="780" height="30" as="geometry" />
        </mxCell>
        <mxCell id="2gGzgF8M-ZaWOMVFMqxc-394" value="Item 1" style="rounded=1;whiteSpace=wrap;html=1;fillStyle=solid;fillColor=light-dark(#FFFFFF, #121212);fontColor=light-dark(#FFFFFF,#FFFFFF);fontSize=17;align=left;spacingLeft=5;strokeColor=light-dark(#000000,#00994D);strokeWidth=2;absoluteArcSize=1;" vertex="1" parent="2gGzgF8M-ZaWOMVFMqxc-393">
          <mxGeometry width="780" height="30" as="geometry" />
        </mxCell>
        <mxCell id="2gGzgF8M-ZaWOMVFMqxc-395" value="" style="sketch=0;outlineConnect=0;fontColor=#232F3E;gradientColor=none;fillColor=light-dark(#232F3D,#00994D);strokeColor=none;dashed=0;verticalLabelPosition=bottom;verticalAlign=top;align=center;html=1;fontSize=12;fontStyle=0;aspect=fixed;pointerEvents=1;shape=mxgraph.aws4.magnifying_glass_2;" vertex="1" parent="2gGzgF8M-ZaWOMVFMqxc-393">
          <mxGeometry x="750" y="5" width="20" height="20" as="geometry" />
        </mxCell>
        <mxCell id="2gGzgF8M-ZaWOMVFMqxc-396" value="" style="group;strokeWidth=1;strokeColor=none;perimeterSpacing=1;" vertex="1" connectable="0" parent="2gGzgF8M-ZaWOMVFMqxc-387">
          <mxGeometry x="100" y="185" width="200" height="300" as="geometry" />
        </mxCell>
        <mxCell id="2gGzgF8M-ZaWOMVFMqxc-397" value="" style="group" vertex="1" connectable="0" parent="2gGzgF8M-ZaWOMVFMqxc-396">
          <mxGeometry width="200" height="300" as="geometry" />
        </mxCell>
        <mxCell id="2gGzgF8M-ZaWOMVFMqxc-398" value="" style="rounded=1;whiteSpace=wrap;html=1;perimeterSpacing=0;absoluteArcSize=1;strokeWidth=2;strokeColor=light-dark(#000000,#00994D);" vertex="1" parent="2gGzgF8M-ZaWOMVFMqxc-397">
          <mxGeometry width="200" height="300" as="geometry" />
        </mxCell>
        <mxCell id="2gGzgF8M-ZaWOMVFMqxc-399" value="" style="line;strokeWidth=1;html=1;strokeColor=light-dark(#000000,#00994D);" vertex="1" parent="2gGzgF8M-ZaWOMVFMqxc-397">
          <mxGeometry y="195" width="200" height="10" as="geometry" />
        </mxCell>
        <mxCell id="2gGzgF8M-ZaWOMVFMqxc-400" value="&lt;font style=&quot;font-size: 20px;&quot;&gt;Item name&lt;/font&gt;" style="text;strokeColor=none;align=left;fillColor=none;html=1;verticalAlign=middle;whiteSpace=wrap;rounded=0;" vertex="1" parent="2gGzgF8M-ZaWOMVFMqxc-397">
          <mxGeometry x="10" y="210" width="180" height="30" as="geometry" />
        </mxCell>
        <mxCell id="2gGzgF8M-ZaWOMVFMqxc-401" value="&lt;font style=&quot;font-size: 18px;&quot;&gt;Item price&lt;/font&gt;" style="rounded=1;whiteSpace=wrap;html=1;absoluteArcSize=1;strokeColor=light-dark(#000000,#00994D);fillColor=light-dark(#FFFFFF,#00994D);" vertex="1" parent="2gGzgF8M-ZaWOMVFMqxc-397">
          <mxGeometry x="10" y="250" width="180" height="40" as="geometry" />
        </mxCell>
        <mxCell id="2gGzgF8M-ZaWOMVFMqxc-402" value="" style="html=1;whiteSpace=wrap;shape=isoCube2;backgroundOutline=1;isoAngle=15;" vertex="1" parent="2gGzgF8M-ZaWOMVFMqxc-397">
          <mxGeometry x="55" y="53" width="90" height="100" as="geometry" />
        </mxCell>
        <mxCell id="2gGzgF8M-ZaWOMVFMqxc-403" value="" style="group" vertex="1" connectable="0" parent="2gGzgF8M-ZaWOMVFMqxc-387">
          <mxGeometry x="320" y="185" width="200" height="300" as="geometry" />
        </mxCell>
        <mxCell id="2gGzgF8M-ZaWOMVFMqxc-404" value="" style="rounded=1;whiteSpace=wrap;html=1;perimeterSpacing=0;absoluteArcSize=1;strokeWidth=2;strokeColor=light-dark(#000000,#00994D);" vertex="1" parent="2gGzgF8M-ZaWOMVFMqxc-403">
          <mxGeometry width="200" height="300" as="geometry" />
        </mxCell>
        <mxCell id="2gGzgF8M-ZaWOMVFMqxc-405" value="" style="line;strokeWidth=1;html=1;strokeColor=light-dark(#000000,#00994D);" vertex="1" parent="2gGzgF8M-ZaWOMVFMqxc-403">
          <mxGeometry y="195" width="200" height="10" as="geometry" />
        </mxCell>
        <mxCell id="2gGzgF8M-ZaWOMVFMqxc-406" value="&lt;font style=&quot;font-size: 20px;&quot;&gt;Item name&lt;/font&gt;" style="text;strokeColor=none;align=left;fillColor=none;html=1;verticalAlign=middle;whiteSpace=wrap;rounded=0;" vertex="1" parent="2gGzgF8M-ZaWOMVFMqxc-403">
          <mxGeometry x="10" y="210" width="180" height="30" as="geometry" />
        </mxCell>
        <mxCell id="2gGzgF8M-ZaWOMVFMqxc-407" value="&lt;font style=&quot;font-size: 18px;&quot;&gt;Item price&lt;/font&gt;" style="rounded=1;whiteSpace=wrap;html=1;absoluteArcSize=1;strokeColor=light-dark(#000000,#00994D);fillColor=light-dark(#FFFFFF,#00994D);" vertex="1" parent="2gGzgF8M-ZaWOMVFMqxc-403">
          <mxGeometry x="10" y="250" width="180" height="40" as="geometry" />
        </mxCell>
        <mxCell id="2gGzgF8M-ZaWOMVFMqxc-408" value="" style="html=1;whiteSpace=wrap;shape=isoCube2;backgroundOutline=1;isoAngle=15;" vertex="1" parent="2gGzgF8M-ZaWOMVFMqxc-403">
          <mxGeometry x="55" y="53" width="90" height="100" as="geometry" />
        </mxCell>
        <mxCell id="2gGzgF8M-ZaWOMVFMqxc-409" value="" style="group" vertex="1" connectable="0" parent="2gGzgF8M-ZaWOMVFMqxc-387">
          <mxGeometry x="540" y="185" width="200" height="300" as="geometry" />
        </mxCell>
        <mxCell id="2gGzgF8M-ZaWOMVFMqxc-410" value="" style="rounded=1;whiteSpace=wrap;html=1;perimeterSpacing=0;absoluteArcSize=1;strokeWidth=2;strokeColor=light-dark(#000000,#00994D);" vertex="1" parent="2gGzgF8M-ZaWOMVFMqxc-409">
          <mxGeometry width="200" height="300" as="geometry" />
        </mxCell>
        <mxCell id="2gGzgF8M-ZaWOMVFMqxc-411" value="" style="line;strokeWidth=1;html=1;strokeColor=light-dark(#000000,#00994D);" vertex="1" parent="2gGzgF8M-ZaWOMVFMqxc-409">
          <mxGeometry y="195" width="200" height="10" as="geometry" />
        </mxCell>
        <mxCell id="2gGzgF8M-ZaWOMVFMqxc-412" value="&lt;font style=&quot;font-size: 20px;&quot;&gt;Item name&lt;/font&gt;" style="text;strokeColor=none;align=left;fillColor=none;html=1;verticalAlign=middle;whiteSpace=wrap;rounded=0;" vertex="1" parent="2gGzgF8M-ZaWOMVFMqxc-409">
          <mxGeometry x="10" y="210" width="180" height="30" as="geometry" />
        </mxCell>
        <mxCell id="2gGzgF8M-ZaWOMVFMqxc-413" value="&lt;font style=&quot;font-size: 18px;&quot;&gt;Item price&lt;/font&gt;" style="rounded=1;whiteSpace=wrap;html=1;absoluteArcSize=1;strokeColor=light-dark(#000000,#00994D);fillColor=light-dark(#FFFFFF,#00994D);" vertex="1" parent="2gGzgF8M-ZaWOMVFMqxc-409">
          <mxGeometry x="10" y="250" width="180" height="40" as="geometry" />
        </mxCell>
        <mxCell id="2gGzgF8M-ZaWOMVFMqxc-414" value="" style="html=1;whiteSpace=wrap;shape=isoCube2;backgroundOutline=1;isoAngle=15;" vertex="1" parent="2gGzgF8M-ZaWOMVFMqxc-409">
          <mxGeometry x="55" y="53" width="90" height="100" as="geometry" />
        </mxCell>
        <mxCell id="2gGzgF8M-ZaWOMVFMqxc-415" value="" style="group" vertex="1" connectable="0" parent="2gGzgF8M-ZaWOMVFMqxc-387">
          <mxGeometry x="760" y="185" width="200" height="300" as="geometry" />
        </mxCell>
        <mxCell id="2gGzgF8M-ZaWOMVFMqxc-416" value="" style="rounded=1;whiteSpace=wrap;html=1;perimeterSpacing=0;absoluteArcSize=1;strokeWidth=2;strokeColor=light-dark(#000000,#00994D);" vertex="1" parent="2gGzgF8M-ZaWOMVFMqxc-415">
          <mxGeometry width="200" height="300" as="geometry" />
        </mxCell>
        <mxCell id="2gGzgF8M-ZaWOMVFMqxc-417" value="" style="line;strokeWidth=1;html=1;strokeColor=light-dark(#000000,#00994D);" vertex="1" parent="2gGzgF8M-ZaWOMVFMqxc-415">
          <mxGeometry y="195" width="200" height="10" as="geometry" />
        </mxCell>
        <mxCell id="2gGzgF8M-ZaWOMVFMqxc-418" value="&lt;font style=&quot;font-size: 20px;&quot;&gt;Item name&lt;/font&gt;" style="text;strokeColor=none;align=left;fillColor=none;html=1;verticalAlign=middle;whiteSpace=wrap;rounded=0;" vertex="1" parent="2gGzgF8M-ZaWOMVFMqxc-415">
          <mxGeometry x="10" y="210" width="180" height="30" as="geometry" />
        </mxCell>
        <mxCell id="2gGzgF8M-ZaWOMVFMqxc-419" value="&lt;font style=&quot;font-size: 18px;&quot;&gt;Item price&lt;/font&gt;" style="rounded=1;whiteSpace=wrap;html=1;absoluteArcSize=1;strokeColor=light-dark(#000000,#00994D);fillColor=light-dark(#FFFFFF,#00994D);" vertex="1" parent="2gGzgF8M-ZaWOMVFMqxc-415">
          <mxGeometry x="10" y="250" width="180" height="40" as="geometry" />
        </mxCell>
        <mxCell id="2gGzgF8M-ZaWOMVFMqxc-420" value="" style="html=1;whiteSpace=wrap;shape=isoCube2;backgroundOutline=1;isoAngle=15;" vertex="1" parent="2gGzgF8M-ZaWOMVFMqxc-415">
          <mxGeometry x="55" y="53" width="90" height="100" as="geometry" />
        </mxCell>
        <mxCell id="2gGzgF8M-ZaWOMVFMqxc-421" value="" style="group;strokeWidth=1;strokeColor=none;perimeterSpacing=1;" vertex="1" connectable="0" parent="2gGzgF8M-ZaWOMVFMqxc-387">
          <mxGeometry x="100" y="535" width="200" height="300" as="geometry" />
        </mxCell>
        <mxCell id="2gGzgF8M-ZaWOMVFMqxc-422" value="" style="group" vertex="1" connectable="0" parent="2gGzgF8M-ZaWOMVFMqxc-421">
          <mxGeometry width="200" height="300" as="geometry" />
        </mxCell>
        <mxCell id="2gGzgF8M-ZaWOMVFMqxc-423" value="" style="rounded=1;whiteSpace=wrap;html=1;perimeterSpacing=0;absoluteArcSize=1;strokeWidth=2;strokeColor=light-dark(#000000,#00994D);" vertex="1" parent="2gGzgF8M-ZaWOMVFMqxc-422">
          <mxGeometry width="200" height="300" as="geometry" />
        </mxCell>
        <mxCell id="2gGzgF8M-ZaWOMVFMqxc-424" value="" style="line;strokeWidth=1;html=1;strokeColor=light-dark(#000000,#00994D);" vertex="1" parent="2gGzgF8M-ZaWOMVFMqxc-422">
          <mxGeometry y="195" width="200" height="10" as="geometry" />
        </mxCell>
        <mxCell id="2gGzgF8M-ZaWOMVFMqxc-425" value="&lt;font style=&quot;font-size: 20px;&quot;&gt;Item name&lt;/font&gt;" style="text;strokeColor=none;align=left;fillColor=none;html=1;verticalAlign=middle;whiteSpace=wrap;rounded=0;" vertex="1" parent="2gGzgF8M-ZaWOMVFMqxc-422">
          <mxGeometry x="10" y="210" width="180" height="30" as="geometry" />
        </mxCell>
        <mxCell id="2gGzgF8M-ZaWOMVFMqxc-426" value="&lt;font style=&quot;font-size: 18px;&quot;&gt;Item price&lt;/font&gt;" style="rounded=1;whiteSpace=wrap;html=1;absoluteArcSize=1;strokeColor=light-dark(#000000,#00994D);fillColor=light-dark(#FFFFFF,#00994D);" vertex="1" parent="2gGzgF8M-ZaWOMVFMqxc-422">
          <mxGeometry x="10" y="250" width="180" height="40" as="geometry" />
        </mxCell>
        <mxCell id="2gGzgF8M-ZaWOMVFMqxc-427" value="" style="html=1;whiteSpace=wrap;shape=isoCube2;backgroundOutline=1;isoAngle=15;" vertex="1" parent="2gGzgF8M-ZaWOMVFMqxc-422">
          <mxGeometry x="55" y="53" width="90" height="100" as="geometry" />
        </mxCell>
        <mxCell id="2gGzgF8M-ZaWOMVFMqxc-428" value="" style="group" vertex="1" connectable="0" parent="2gGzgF8M-ZaWOMVFMqxc-387">
          <mxGeometry x="320" y="535" width="200" height="300" as="geometry" />
        </mxCell>
        <mxCell id="2gGzgF8M-ZaWOMVFMqxc-429" value="" style="rounded=1;whiteSpace=wrap;html=1;perimeterSpacing=0;absoluteArcSize=1;strokeWidth=2;strokeColor=light-dark(#000000,#00994D);" vertex="1" parent="2gGzgF8M-ZaWOMVFMqxc-428">
          <mxGeometry width="200" height="300" as="geometry" />
        </mxCell>
        <mxCell id="2gGzgF8M-ZaWOMVFMqxc-430" value="" style="line;strokeWidth=1;html=1;strokeColor=light-dark(#000000,#00994D);" vertex="1" parent="2gGzgF8M-ZaWOMVFMqxc-428">
          <mxGeometry y="195" width="200" height="10" as="geometry" />
        </mxCell>
        <mxCell id="2gGzgF8M-ZaWOMVFMqxc-431" value="&lt;font style=&quot;font-size: 20px;&quot;&gt;Item name&lt;/font&gt;" style="text;strokeColor=none;align=left;fillColor=none;html=1;verticalAlign=middle;whiteSpace=wrap;rounded=0;" vertex="1" parent="2gGzgF8M-ZaWOMVFMqxc-428">
          <mxGeometry x="10" y="210" width="180" height="30" as="geometry" />
        </mxCell>
        <mxCell id="2gGzgF8M-ZaWOMVFMqxc-432" value="&lt;font style=&quot;font-size: 18px;&quot;&gt;Item price&lt;/font&gt;" style="rounded=1;whiteSpace=wrap;html=1;absoluteArcSize=1;strokeColor=light-dark(#000000,#00994D);fillColor=light-dark(#FFFFFF,#00994D);" vertex="1" parent="2gGzgF8M-ZaWOMVFMqxc-428">
          <mxGeometry x="10" y="250" width="180" height="40" as="geometry" />
        </mxCell>
        <mxCell id="2gGzgF8M-ZaWOMVFMqxc-433" value="" style="html=1;whiteSpace=wrap;shape=isoCube2;backgroundOutline=1;isoAngle=15;" vertex="1" parent="2gGzgF8M-ZaWOMVFMqxc-428">
          <mxGeometry x="55" y="53" width="90" height="100" as="geometry" />
        </mxCell>
        <mxCell id="2gGzgF8M-ZaWOMVFMqxc-434" value="" style="group" vertex="1" connectable="0" parent="2gGzgF8M-ZaWOMVFMqxc-387">
          <mxGeometry x="540" y="535" width="200" height="300" as="geometry" />
        </mxCell>
        <mxCell id="2gGzgF8M-ZaWOMVFMqxc-435" value="" style="rounded=1;whiteSpace=wrap;html=1;perimeterSpacing=0;absoluteArcSize=1;strokeWidth=2;strokeColor=light-dark(#000000,#00994D);" vertex="1" parent="2gGzgF8M-ZaWOMVFMqxc-434">
          <mxGeometry width="200" height="300" as="geometry" />
        </mxCell>
        <mxCell id="2gGzgF8M-ZaWOMVFMqxc-436" value="" style="line;strokeWidth=1;html=1;strokeColor=light-dark(#000000,#00994D);" vertex="1" parent="2gGzgF8M-ZaWOMVFMqxc-434">
          <mxGeometry y="195" width="200" height="10" as="geometry" />
        </mxCell>
        <mxCell id="2gGzgF8M-ZaWOMVFMqxc-437" value="&lt;font style=&quot;font-size: 20px;&quot;&gt;Item name&lt;/font&gt;" style="text;strokeColor=none;align=left;fillColor=none;html=1;verticalAlign=middle;whiteSpace=wrap;rounded=0;" vertex="1" parent="2gGzgF8M-ZaWOMVFMqxc-434">
          <mxGeometry x="10" y="210" width="180" height="30" as="geometry" />
        </mxCell>
        <mxCell id="2gGzgF8M-ZaWOMVFMqxc-438" value="&lt;font style=&quot;font-size: 18px;&quot;&gt;Item price&lt;/font&gt;" style="rounded=1;whiteSpace=wrap;html=1;absoluteArcSize=1;strokeColor=light-dark(#000000,#00994D);fillColor=light-dark(#FFFFFF,#00994D);" vertex="1" parent="2gGzgF8M-ZaWOMVFMqxc-434">
          <mxGeometry x="10" y="250" width="180" height="40" as="geometry" />
        </mxCell>
        <mxCell id="2gGzgF8M-ZaWOMVFMqxc-439" value="" style="html=1;whiteSpace=wrap;shape=isoCube2;backgroundOutline=1;isoAngle=15;" vertex="1" parent="2gGzgF8M-ZaWOMVFMqxc-434">
          <mxGeometry x="55" y="53" width="90" height="100" as="geometry" />
        </mxCell>
        <mxCell id="2gGzgF8M-ZaWOMVFMqxc-440" value="" style="group" vertex="1" connectable="0" parent="2gGzgF8M-ZaWOMVFMqxc-387">
          <mxGeometry x="760" y="535" width="200" height="300" as="geometry" />
        </mxCell>
        <mxCell id="2gGzgF8M-ZaWOMVFMqxc-441" value="" style="rounded=1;whiteSpace=wrap;html=1;perimeterSpacing=0;absoluteArcSize=1;strokeWidth=2;strokeColor=light-dark(#000000,#00994D);" vertex="1" parent="2gGzgF8M-ZaWOMVFMqxc-440">
          <mxGeometry width="200" height="300" as="geometry" />
        </mxCell>
        <mxCell id="2gGzgF8M-ZaWOMVFMqxc-442" value="" style="line;strokeWidth=1;html=1;strokeColor=light-dark(#000000,#00994D);" vertex="1" parent="2gGzgF8M-ZaWOMVFMqxc-440">
          <mxGeometry y="195" width="200" height="10" as="geometry" />
        </mxCell>
        <mxCell id="2gGzgF8M-ZaWOMVFMqxc-443" value="&lt;font style=&quot;font-size: 20px;&quot;&gt;Item name&lt;/font&gt;" style="text;strokeColor=none;align=left;fillColor=none;html=1;verticalAlign=middle;whiteSpace=wrap;rounded=0;" vertex="1" parent="2gGzgF8M-ZaWOMVFMqxc-440">
          <mxGeometry x="10" y="210" width="180" height="30" as="geometry" />
        </mxCell>
        <mxCell id="2gGzgF8M-ZaWOMVFMqxc-444" value="&lt;font style=&quot;font-size: 18px;&quot;&gt;Item price&lt;/font&gt;" style="rounded=1;whiteSpace=wrap;html=1;absoluteArcSize=1;strokeColor=light-dark(#000000,#00994D);fillColor=light-dark(#FFFFFF,#00994D);" vertex="1" parent="2gGzgF8M-ZaWOMVFMqxc-440">
          <mxGeometry x="10" y="250" width="180" height="40" as="geometry" />
        </mxCell>
        <mxCell id="2gGzgF8M-ZaWOMVFMqxc-445" value="" style="html=1;whiteSpace=wrap;shape=isoCube2;backgroundOutline=1;isoAngle=15;" vertex="1" parent="2gGzgF8M-ZaWOMVFMqxc-440">
          <mxGeometry x="55" y="53" width="90" height="100" as="geometry" />
        </mxCell>
        <mxCell id="2gGzgF8M-ZaWOMVFMqxc-644" value="" style="edgeStyle=orthogonalEdgeStyle;rounded=0;orthogonalLoop=1;jettySize=auto;html=1;" edge="1" parent="2gGzgF8M-ZaWOMVFMqxc-387" source="2gGzgF8M-ZaWOMVFMqxc-446" target="2gGzgF8M-ZaWOMVFMqxc-395">
          <mxGeometry relative="1" as="geometry" />
        </mxCell>
        <mxCell id="2gGzgF8M-ZaWOMVFMqxc-446" value="1" style="ellipse;whiteSpace=wrap;html=1;aspect=fixed;" vertex="1" parent="2gGzgF8M-ZaWOMVFMqxc-387">
          <mxGeometry x="1030" y="120" width="20" height="20" as="geometry" />
        </mxCell>
        <mxCell id="2gGzgF8M-ZaWOMVFMqxc-448" style="edgeStyle=orthogonalEdgeStyle;rounded=0;orthogonalLoop=1;jettySize=auto;html=1;fillColor=#a20025;strokeColor=#6F0000;" edge="1" parent="2gGzgF8M-ZaWOMVFMqxc-387" source="2gGzgF8M-ZaWOMVFMqxc-419" target="2gGzgF8M-ZaWOMVFMqxc-392">
          <mxGeometry relative="1" as="geometry" />
        </mxCell>
        <mxCell id="2gGzgF8M-ZaWOMVFMqxc-447" style="edgeStyle=orthogonalEdgeStyle;rounded=0;orthogonalLoop=1;jettySize=auto;html=1;entryX=0;entryY=0.5;entryDx=0;entryDy=0;fillColor=#a20025;strokeColor=#6F0000;" edge="1" parent="1" source="2gGzgF8M-ZaWOMVFMqxc-93" target="2gGzgF8M-ZaWOMVFMqxc-394">
          <mxGeometry relative="1" as="geometry" />
        </mxCell>
        <mxCell id="2gGzgF8M-ZaWOMVFMqxc-450" value="" style="strokeWidth=1;shadow=0;dashed=0;align=left;html=1;shape=mxgraph.mockup.containers.browserWindow;rSize=0;strokeColor=#666666;mainText=,;recursiveResize=0;rounded=0;labelBackgroundColor=none;fontFamily=Verdana;fontSize=12" vertex="1" parent="1">
          <mxGeometry x="3470" y="20" width="1170" height="740" as="geometry" />
        </mxCell>
        <mxCell id="2gGzgF8M-ZaWOMVFMqxc-451" value="Page 1" style="strokeWidth=1;shadow=0;dashed=0;align=center;html=1;shape=mxgraph.mockup.containers.anchor;fontSize=17;fontColor=#666666;align=left;" vertex="1" parent="2gGzgF8M-ZaWOMVFMqxc-450">
          <mxGeometry x="60" y="12" width="110" height="26" as="geometry" />
        </mxCell>
        <mxCell id="2gGzgF8M-ZaWOMVFMqxc-452" value="https://www.store.example/item/UUID" style="strokeWidth=1;shadow=0;dashed=0;align=center;html=1;shape=mxgraph.mockup.containers.anchor;rSize=0;fontSize=17;fontColor=#666666;align=left;" vertex="1" parent="2gGzgF8M-ZaWOMVFMqxc-450">
          <mxGeometry x="130" y="60" width="250" height="26" as="geometry" />
        </mxCell>
        <mxCell id="2gGzgF8M-ZaWOMVFMqxc-453" value="Logo" style="rounded=1;whiteSpace=wrap;html=1;fillColor=light-dark(#FFFFFF,#00994D);absoluteArcSize=1;" vertex="1" parent="2gGzgF8M-ZaWOMVFMqxc-450">
          <mxGeometry x="20" y="130" width="70" height="30" as="geometry" />
        </mxCell>
        <mxCell id="2gGzgF8M-ZaWOMVFMqxc-454" value="Catalog" style="rounded=1;whiteSpace=wrap;html=1;strokeColor=light-dark(#000000,#00994D);fillColor=light-dark(#FFFFFF,#00994D);absoluteArcSize=1;" vertex="1" parent="2gGzgF8M-ZaWOMVFMqxc-450">
          <mxGeometry x="100" y="130" width="70" height="30" as="geometry" />
        </mxCell>
        <mxCell id="2gGzgF8M-ZaWOMVFMqxc-455" value="Cart" style="rounded=1;whiteSpace=wrap;html=1;strokeColor=light-dark(#000000,#00994D);fillColor=light-dark(#FFFFFF,#00994D);absoluteArcSize=1;" vertex="1" parent="2gGzgF8M-ZaWOMVFMqxc-450">
          <mxGeometry x="970" y="130" width="70" height="30" as="geometry" />
        </mxCell>
        <mxCell id="2gGzgF8M-ZaWOMVFMqxc-456" value="" style="group" vertex="1" connectable="0" parent="2gGzgF8M-ZaWOMVFMqxc-450">
          <mxGeometry x="180" y="130" width="780" height="30" as="geometry" />
        </mxCell>
        <mxCell id="2gGzgF8M-ZaWOMVFMqxc-457" value="Item 1" style="rounded=1;whiteSpace=wrap;html=1;fillStyle=solid;fillColor=light-dark(#FFFFFF, #121212);fontColor=light-dark(#FFFFFF,#FFFFFF);fontSize=17;align=left;spacingLeft=5;strokeColor=light-dark(#000000,#00994D);strokeWidth=2;absoluteArcSize=1;" vertex="1" parent="2gGzgF8M-ZaWOMVFMqxc-456">
          <mxGeometry width="780" height="30" as="geometry" />
        </mxCell>
        <mxCell id="2gGzgF8M-ZaWOMVFMqxc-458" value="" style="sketch=0;outlineConnect=0;fontColor=#232F3E;gradientColor=none;fillColor=light-dark(#232F3D,#00994D);strokeColor=none;dashed=0;verticalLabelPosition=bottom;verticalAlign=top;align=center;html=1;fontSize=12;fontStyle=0;aspect=fixed;pointerEvents=1;shape=mxgraph.aws4.magnifying_glass_2;" vertex="1" parent="2gGzgF8M-ZaWOMVFMqxc-456">
          <mxGeometry x="750" y="5" width="20" height="20" as="geometry" />
        </mxCell>
        <mxCell id="2gGzgF8M-ZaWOMVFMqxc-459" value="" style="group;strokeWidth=1;strokeColor=none;perimeterSpacing=1;" vertex="1" connectable="0" parent="2gGzgF8M-ZaWOMVFMqxc-450">
          <mxGeometry x="100" y="185" width="520" height="515" as="geometry" />
        </mxCell>
        <mxCell id="2gGzgF8M-ZaWOMVFMqxc-461" value="" style="rounded=1;whiteSpace=wrap;html=1;perimeterSpacing=0;absoluteArcSize=1;strokeWidth=2;strokeColor=light-dark(#000000,#00994D);" vertex="1" parent="2gGzgF8M-ZaWOMVFMqxc-459">
          <mxGeometry width="520" height="515" as="geometry" />
        </mxCell>
        <mxCell id="2gGzgF8M-ZaWOMVFMqxc-465" value="" style="html=1;whiteSpace=wrap;shape=isoCube2;backgroundOutline=1;isoAngle=15;" vertex="1" parent="2gGzgF8M-ZaWOMVFMqxc-459">
          <mxGeometry x="70" y="90.98" width="340" height="369.02" as="geometry" />
        </mxCell>
        <mxCell id="2gGzgF8M-ZaWOMVFMqxc-510" value="1" style="ellipse;whiteSpace=wrap;html=1;aspect=fixed;" vertex="1" parent="2gGzgF8M-ZaWOMVFMqxc-450">
          <mxGeometry x="1030" y="120" width="20" height="20" as="geometry" />
        </mxCell>
        <mxCell id="2gGzgF8M-ZaWOMVFMqxc-464" value="&lt;font style=&quot;font-size: 18px;&quot;&gt;Item price&lt;/font&gt;" style="rounded=1;whiteSpace=wrap;html=1;absoluteArcSize=1;strokeColor=light-dark(#000000,#00994D);fillColor=light-dark(#FFFFFF,#00994D);" vertex="1" parent="2gGzgF8M-ZaWOMVFMqxc-450">
          <mxGeometry x="650" y="660" width="300" height="40" as="geometry" />
        </mxCell>
        <mxCell id="2gGzgF8M-ZaWOMVFMqxc-514" value="&lt;h1 style=&quot;margin-top: 0px;&quot;&gt;Item&lt;/h1&gt;&lt;p&gt;Lorem ipsum dolor sit amet, consectetur adipiscing elit. Aliquam augue justo, sollicitudin nec posuere quis, vehicula eu justo. Pellentesque ligula diam, pharetra id augue id, viverra rhoncus enim. Sed commodo libero ac nibh vehicula, eu commodo enim suscipit. Mauris turpis orci, condimentum faucibus dui aliquam, rutrum suscipit mi. Sed diam urna, consequat at lobortis quis, pellentesque in neque. Maecenas porta interdum nisi. Nullam vitae tincidunt dolor, ut placerat est.&lt;/p&gt;&lt;p&gt;&lt;br&gt;&lt;/p&gt;&lt;p&gt;Cras at consequat mi, et finibus turpis. Vestibulum faucibus diam nec convallis semper. Nam ac ante sagittis, rutrum turpis nec, tristique metus. Proin non nunc at risus accumsan lacinia in nec lectus. Fusce suscipit interdum sollicitudin. Praesent vel velit vel risus volutpat rutrum. Interdum et malesuada fames ac ante ipsum primis in faucibus.&lt;/p&gt;" style="text;html=1;whiteSpace=wrap;overflow=hidden;rounded=0;" vertex="1" parent="2gGzgF8M-ZaWOMVFMqxc-450">
          <mxGeometry x="650" y="185" width="290" height="415" as="geometry" />
        </mxCell>
        <mxCell id="2gGzgF8M-ZaWOMVFMqxc-515" value="" style="group;strokeWidth=1;strokeColor=none;perimeterSpacing=1;" vertex="1" connectable="0" parent="2gGzgF8M-ZaWOMVFMqxc-450">
          <mxGeometry x="650" y="610" width="300" height="35" as="geometry" />
        </mxCell>
        <mxCell id="2gGzgF8M-ZaWOMVFMqxc-516" value="&lt;font style=&quot;font-size: 18px;&quot;&gt;About delivery&lt;/font&gt;" style="rounded=1;whiteSpace=wrap;html=1;perimeterSpacing=0;absoluteArcSize=1;strokeWidth=2;strokeColor=light-dark(#000000,#00994D);" vertex="1" parent="2gGzgF8M-ZaWOMVFMqxc-515">
          <mxGeometry width="300" height="40" as="geometry" />
        </mxCell>
        <mxCell id="2gGzgF8M-ZaWOMVFMqxc-518" value="&lt;font style=&quot;font-size: 25px;&quot;&gt;Item&lt;/font&gt;" style="text;html=1;align=center;verticalAlign=middle;resizable=0;points=[];autosize=1;strokeColor=none;fillColor=none;" vertex="1" parent="1">
          <mxGeometry x="3470" y="-45" width="70" height="40" as="geometry" />
        </mxCell>
        <mxCell id="2gGzgF8M-ZaWOMVFMqxc-519" style="edgeStyle=orthogonalEdgeStyle;rounded=0;orthogonalLoop=1;jettySize=auto;html=1;entryX=0.005;entryY=0.57;entryDx=0;entryDy=0;entryPerimeter=0;fillColor=#a20025;strokeColor=#6F0000;" edge="1" parent="1" source="2gGzgF8M-ZaWOMVFMqxc-416" target="2gGzgF8M-ZaWOMVFMqxc-450">
          <mxGeometry relative="1" as="geometry" />
        </mxCell>
        <mxCell id="2gGzgF8M-ZaWOMVFMqxc-520" value="" style="edgeStyle=orthogonalEdgeStyle;rounded=0;orthogonalLoop=1;jettySize=auto;html=1;" edge="1" parent="1" source="2gGzgF8M-ZaWOMVFMqxc-446" target="2gGzgF8M-ZaWOMVFMqxc-450">
          <mxGeometry relative="1" as="geometry" />
        </mxCell>
        <mxCell id="2gGzgF8M-ZaWOMVFMqxc-521" value="" style="strokeWidth=1;shadow=0;dashed=0;align=left;html=1;shape=mxgraph.mockup.containers.browserWindow;rSize=0;strokeColor=#666666;mainText=,;recursiveResize=0;rounded=0;labelBackgroundColor=none;fontFamily=Verdana;fontSize=12" vertex="1" parent="1">
          <mxGeometry x="50" y="940" width="1060" height="720" as="geometry" />
        </mxCell>
        <mxCell id="2gGzgF8M-ZaWOMVFMqxc-522" value="Page 1" style="strokeWidth=1;shadow=0;dashed=0;align=center;html=1;shape=mxgraph.mockup.containers.anchor;fontSize=17;fontColor=#666666;align=left;" vertex="1" parent="2gGzgF8M-ZaWOMVFMqxc-521">
          <mxGeometry x="60" y="12" width="110" height="26" as="geometry" />
        </mxCell>
        <mxCell id="2gGzgF8M-ZaWOMVFMqxc-523" value="https://www.store.example/catalog" style="strokeWidth=1;shadow=0;dashed=0;align=center;html=1;shape=mxgraph.mockup.containers.anchor;rSize=0;fontSize=17;fontColor=#666666;align=left;" vertex="1" parent="2gGzgF8M-ZaWOMVFMqxc-521">
          <mxGeometry x="130" y="60" width="250" height="26" as="geometry" />
        </mxCell>
        <mxCell id="2gGzgF8M-ZaWOMVFMqxc-524" value="Logo" style="rounded=1;whiteSpace=wrap;html=1;fillColor=light-dark(#FFFFFF,#00994D);absoluteArcSize=1;" vertex="1" parent="2gGzgF8M-ZaWOMVFMqxc-521">
          <mxGeometry x="20" y="130" width="70" height="30" as="geometry" />
        </mxCell>
        <mxCell id="2gGzgF8M-ZaWOMVFMqxc-525" value="Catalog" style="rounded=1;whiteSpace=wrap;html=1;strokeColor=light-dark(#000000,#00994D);fillColor=light-dark(#FFFFFF,#00994D);absoluteArcSize=1;" vertex="1" parent="2gGzgF8M-ZaWOMVFMqxc-521">
          <mxGeometry x="100" y="130" width="70" height="30" as="geometry" />
        </mxCell>
        <mxCell id="2gGzgF8M-ZaWOMVFMqxc-526" value="Cart" style="rounded=1;whiteSpace=wrap;html=1;strokeColor=light-dark(#000000,#00994D);fillColor=light-dark(#FFFFFF,#00994D);absoluteArcSize=1;" vertex="1" parent="2gGzgF8M-ZaWOMVFMqxc-521">
          <mxGeometry x="970" y="130" width="70" height="30" as="geometry" />
        </mxCell>
        <mxCell id="2gGzgF8M-ZaWOMVFMqxc-527" value="" style="group" vertex="1" connectable="0" parent="2gGzgF8M-ZaWOMVFMqxc-521">
          <mxGeometry x="180" y="130" width="780" height="30" as="geometry" />
        </mxCell>
        <mxCell id="2gGzgF8M-ZaWOMVFMqxc-528" value="Search" style="rounded=1;whiteSpace=wrap;html=1;fillStyle=solid;fillColor=light-dark(#FFFFFF, #121212);fontColor=light-dark(#666666,#959595);fontSize=17;align=left;spacingLeft=5;strokeColor=light-dark(#000000,#00994D);strokeWidth=2;absoluteArcSize=1;" vertex="1" parent="2gGzgF8M-ZaWOMVFMqxc-527">
          <mxGeometry width="780" height="30" as="geometry" />
        </mxCell>
        <mxCell id="2gGzgF8M-ZaWOMVFMqxc-529" value="" style="sketch=0;outlineConnect=0;fontColor=#232F3E;gradientColor=none;fillColor=light-dark(#232F3D,#00994D);strokeColor=none;dashed=0;verticalLabelPosition=bottom;verticalAlign=top;align=center;html=1;fontSize=12;fontStyle=0;aspect=fixed;pointerEvents=1;shape=mxgraph.aws4.magnifying_glass_2;" vertex="1" parent="2gGzgF8M-ZaWOMVFMqxc-527">
          <mxGeometry x="750" y="5" width="20" height="20" as="geometry" />
        </mxCell>
        <mxCell id="2gGzgF8M-ZaWOMVFMqxc-589" value="" style="group" vertex="1" connectable="0" parent="2gGzgF8M-ZaWOMVFMqxc-521">
          <mxGeometry x="100" y="180" width="200" height="240" as="geometry" />
        </mxCell>
        <mxCell id="2gGzgF8M-ZaWOMVFMqxc-583" value="" style="rounded=1;whiteSpace=wrap;html=1;perimeterSpacing=0;absoluteArcSize=1;strokeWidth=2;strokeColor=light-dark(#000000,#00994D);" vertex="1" parent="2gGzgF8M-ZaWOMVFMqxc-589">
          <mxGeometry width="200" height="240" as="geometry" />
        </mxCell>
        <mxCell id="2gGzgF8M-ZaWOMVFMqxc-584" value="" style="line;strokeWidth=1;html=1;strokeColor=light-dark(#000000,#00994D);" vertex="1" parent="2gGzgF8M-ZaWOMVFMqxc-589">
          <mxGeometry y="188.5" width="200" height="9.666666666666666" as="geometry" />
        </mxCell>
        <mxCell id="2gGzgF8M-ZaWOMVFMqxc-585" value="&lt;font style=&quot;font-size: 20px;&quot;&gt;Category name&lt;/font&gt;" style="text;strokeColor=none;align=left;fillColor=none;html=1;verticalAlign=middle;whiteSpace=wrap;rounded=0;" vertex="1" parent="2gGzgF8M-ZaWOMVFMqxc-589">
          <mxGeometry x="10" y="203" width="180" height="29" as="geometry" />
        </mxCell>
        <mxCell id="2gGzgF8M-ZaWOMVFMqxc-587" value="" style="html=1;whiteSpace=wrap;shape=isoCube2;backgroundOutline=1;isoAngle=15;" vertex="1" parent="2gGzgF8M-ZaWOMVFMqxc-589">
          <mxGeometry x="55" y="51.23333333333335" width="90" height="96.66666666666667" as="geometry" />
        </mxCell>
        <mxCell id="2gGzgF8M-ZaWOMVFMqxc-591" value="" style="group" vertex="1" connectable="0" parent="2gGzgF8M-ZaWOMVFMqxc-521">
          <mxGeometry x="320" y="180" width="200" height="240" as="geometry" />
        </mxCell>
        <mxCell id="2gGzgF8M-ZaWOMVFMqxc-592" value="" style="rounded=1;whiteSpace=wrap;html=1;perimeterSpacing=0;absoluteArcSize=1;strokeWidth=2;strokeColor=light-dark(#000000,#00994D);" vertex="1" parent="2gGzgF8M-ZaWOMVFMqxc-591">
          <mxGeometry width="200" height="240" as="geometry" />
        </mxCell>
        <mxCell id="2gGzgF8M-ZaWOMVFMqxc-593" value="" style="line;strokeWidth=1;html=1;strokeColor=light-dark(#000000,#00994D);" vertex="1" parent="2gGzgF8M-ZaWOMVFMqxc-591">
          <mxGeometry y="188.5" width="200" height="9.666666666666666" as="geometry" />
        </mxCell>
        <mxCell id="2gGzgF8M-ZaWOMVFMqxc-594" value="&lt;font style=&quot;font-size: 20px;&quot;&gt;Category name&lt;/font&gt;" style="text;strokeColor=none;align=left;fillColor=none;html=1;verticalAlign=middle;whiteSpace=wrap;rounded=0;" vertex="1" parent="2gGzgF8M-ZaWOMVFMqxc-591">
          <mxGeometry x="10" y="203" width="180" height="29" as="geometry" />
        </mxCell>
        <mxCell id="2gGzgF8M-ZaWOMVFMqxc-595" value="" style="html=1;whiteSpace=wrap;shape=isoCube2;backgroundOutline=1;isoAngle=15;" vertex="1" parent="2gGzgF8M-ZaWOMVFMqxc-591">
          <mxGeometry x="55" y="51.23333333333335" width="90" height="96.66666666666667" as="geometry" />
        </mxCell>
        <mxCell id="2gGzgF8M-ZaWOMVFMqxc-596" value="" style="group" vertex="1" connectable="0" parent="2gGzgF8M-ZaWOMVFMqxc-521">
          <mxGeometry x="540" y="180" width="200" height="240" as="geometry" />
        </mxCell>
        <mxCell id="2gGzgF8M-ZaWOMVFMqxc-597" value="" style="rounded=1;whiteSpace=wrap;html=1;perimeterSpacing=0;absoluteArcSize=1;strokeWidth=2;strokeColor=light-dark(#000000,#00994D);" vertex="1" parent="2gGzgF8M-ZaWOMVFMqxc-596">
          <mxGeometry width="200" height="240" as="geometry" />
        </mxCell>
        <mxCell id="2gGzgF8M-ZaWOMVFMqxc-598" value="" style="line;strokeWidth=1;html=1;strokeColor=light-dark(#000000,#00994D);" vertex="1" parent="2gGzgF8M-ZaWOMVFMqxc-596">
          <mxGeometry y="188.5" width="200" height="9.666666666666666" as="geometry" />
        </mxCell>
        <mxCell id="2gGzgF8M-ZaWOMVFMqxc-599" value="&lt;font style=&quot;font-size: 20px;&quot;&gt;Category name&lt;/font&gt;" style="text;strokeColor=none;align=left;fillColor=none;html=1;verticalAlign=middle;whiteSpace=wrap;rounded=0;" vertex="1" parent="2gGzgF8M-ZaWOMVFMqxc-596">
          <mxGeometry x="10" y="203" width="180" height="29" as="geometry" />
        </mxCell>
        <mxCell id="2gGzgF8M-ZaWOMVFMqxc-600" value="" style="html=1;whiteSpace=wrap;shape=isoCube2;backgroundOutline=1;isoAngle=15;" vertex="1" parent="2gGzgF8M-ZaWOMVFMqxc-596">
          <mxGeometry x="55" y="51.23333333333335" width="90" height="96.66666666666667" as="geometry" />
        </mxCell>
        <mxCell id="2gGzgF8M-ZaWOMVFMqxc-601" value="" style="group" vertex="1" connectable="0" parent="2gGzgF8M-ZaWOMVFMqxc-521">
          <mxGeometry x="760" y="180" width="200" height="240" as="geometry" />
        </mxCell>
        <mxCell id="2gGzgF8M-ZaWOMVFMqxc-602" value="" style="rounded=1;whiteSpace=wrap;html=1;perimeterSpacing=0;absoluteArcSize=1;strokeWidth=2;strokeColor=light-dark(#000000,#00994D);" vertex="1" parent="2gGzgF8M-ZaWOMVFMqxc-601">
          <mxGeometry width="200" height="240" as="geometry" />
        </mxCell>
        <mxCell id="2gGzgF8M-ZaWOMVFMqxc-603" value="" style="line;strokeWidth=1;html=1;strokeColor=light-dark(#000000,#00994D);" vertex="1" parent="2gGzgF8M-ZaWOMVFMqxc-601">
          <mxGeometry y="188.5" width="200" height="9.666666666666666" as="geometry" />
        </mxCell>
        <mxCell id="2gGzgF8M-ZaWOMVFMqxc-604" value="&lt;font style=&quot;font-size: 20px;&quot;&gt;Category name&lt;/font&gt;" style="text;strokeColor=none;align=left;fillColor=none;html=1;verticalAlign=middle;whiteSpace=wrap;rounded=0;" vertex="1" parent="2gGzgF8M-ZaWOMVFMqxc-601">
          <mxGeometry x="10" y="203" width="180" height="29" as="geometry" />
        </mxCell>
        <mxCell id="2gGzgF8M-ZaWOMVFMqxc-605" value="" style="html=1;whiteSpace=wrap;shape=isoCube2;backgroundOutline=1;isoAngle=15;" vertex="1" parent="2gGzgF8M-ZaWOMVFMqxc-601">
          <mxGeometry x="55" y="51.23333333333335" width="90" height="96.66666666666667" as="geometry" />
        </mxCell>
        <mxCell id="2gGzgF8M-ZaWOMVFMqxc-606" value="" style="group" vertex="1" connectable="0" parent="2gGzgF8M-ZaWOMVFMqxc-521">
          <mxGeometry x="100" y="440" width="200" height="240" as="geometry" />
        </mxCell>
        <mxCell id="2gGzgF8M-ZaWOMVFMqxc-607" value="" style="rounded=1;whiteSpace=wrap;html=1;perimeterSpacing=0;absoluteArcSize=1;strokeWidth=2;strokeColor=light-dark(#000000,#00994D);" vertex="1" parent="2gGzgF8M-ZaWOMVFMqxc-606">
          <mxGeometry width="200" height="240" as="geometry" />
        </mxCell>
        <mxCell id="2gGzgF8M-ZaWOMVFMqxc-608" value="" style="line;strokeWidth=1;html=1;strokeColor=light-dark(#000000,#00994D);" vertex="1" parent="2gGzgF8M-ZaWOMVFMqxc-606">
          <mxGeometry y="188.5" width="200" height="9.666666666666666" as="geometry" />
        </mxCell>
        <mxCell id="2gGzgF8M-ZaWOMVFMqxc-609" value="&lt;font style=&quot;font-size: 20px;&quot;&gt;Category name&lt;/font&gt;" style="text;strokeColor=none;align=left;fillColor=none;html=1;verticalAlign=middle;whiteSpace=wrap;rounded=0;" vertex="1" parent="2gGzgF8M-ZaWOMVFMqxc-606">
          <mxGeometry x="10" y="203" width="180" height="29" as="geometry" />
        </mxCell>
        <mxCell id="2gGzgF8M-ZaWOMVFMqxc-610" value="" style="html=1;whiteSpace=wrap;shape=isoCube2;backgroundOutline=1;isoAngle=15;" vertex="1" parent="2gGzgF8M-ZaWOMVFMqxc-606">
          <mxGeometry x="55" y="51.23333333333335" width="90" height="96.66666666666667" as="geometry" />
        </mxCell>
        <mxCell id="2gGzgF8M-ZaWOMVFMqxc-611" value="" style="group" vertex="1" connectable="0" parent="2gGzgF8M-ZaWOMVFMqxc-521">
          <mxGeometry x="320" y="440" width="200" height="240" as="geometry" />
        </mxCell>
        <mxCell id="2gGzgF8M-ZaWOMVFMqxc-612" value="" style="rounded=1;whiteSpace=wrap;html=1;perimeterSpacing=0;absoluteArcSize=1;strokeWidth=2;strokeColor=light-dark(#000000,#00994D);" vertex="1" parent="2gGzgF8M-ZaWOMVFMqxc-611">
          <mxGeometry width="200" height="240" as="geometry" />
        </mxCell>
        <mxCell id="2gGzgF8M-ZaWOMVFMqxc-613" value="" style="line;strokeWidth=1;html=1;strokeColor=light-dark(#000000,#00994D);" vertex="1" parent="2gGzgF8M-ZaWOMVFMqxc-611">
          <mxGeometry y="188.5" width="200" height="9.666666666666666" as="geometry" />
        </mxCell>
        <mxCell id="2gGzgF8M-ZaWOMVFMqxc-614" value="&lt;font style=&quot;font-size: 20px;&quot;&gt;Category name&lt;/font&gt;" style="text;strokeColor=none;align=left;fillColor=none;html=1;verticalAlign=middle;whiteSpace=wrap;rounded=0;" vertex="1" parent="2gGzgF8M-ZaWOMVFMqxc-611">
          <mxGeometry x="10" y="203" width="180" height="29" as="geometry" />
        </mxCell>
        <mxCell id="2gGzgF8M-ZaWOMVFMqxc-615" value="" style="html=1;whiteSpace=wrap;shape=isoCube2;backgroundOutline=1;isoAngle=15;" vertex="1" parent="2gGzgF8M-ZaWOMVFMqxc-611">
          <mxGeometry x="55" y="51.23333333333335" width="90" height="96.66666666666667" as="geometry" />
        </mxCell>
        <mxCell id="2gGzgF8M-ZaWOMVFMqxc-616" value="" style="group" vertex="1" connectable="0" parent="2gGzgF8M-ZaWOMVFMqxc-521">
          <mxGeometry x="540" y="440" width="200" height="240" as="geometry" />
        </mxCell>
        <mxCell id="2gGzgF8M-ZaWOMVFMqxc-617" value="" style="rounded=1;whiteSpace=wrap;html=1;perimeterSpacing=0;absoluteArcSize=1;strokeWidth=2;strokeColor=light-dark(#000000,#00994D);" vertex="1" parent="2gGzgF8M-ZaWOMVFMqxc-616">
          <mxGeometry width="200" height="240" as="geometry" />
        </mxCell>
        <mxCell id="2gGzgF8M-ZaWOMVFMqxc-618" value="" style="line;strokeWidth=1;html=1;strokeColor=light-dark(#000000,#00994D);" vertex="1" parent="2gGzgF8M-ZaWOMVFMqxc-616">
          <mxGeometry y="188.5" width="200" height="9.666666666666666" as="geometry" />
        </mxCell>
        <mxCell id="2gGzgF8M-ZaWOMVFMqxc-619" value="&lt;font style=&quot;font-size: 20px;&quot;&gt;Category name&lt;/font&gt;" style="text;strokeColor=none;align=left;fillColor=none;html=1;verticalAlign=middle;whiteSpace=wrap;rounded=0;" vertex="1" parent="2gGzgF8M-ZaWOMVFMqxc-616">
          <mxGeometry x="10" y="203" width="180" height="29" as="geometry" />
        </mxCell>
        <mxCell id="2gGzgF8M-ZaWOMVFMqxc-620" value="" style="html=1;whiteSpace=wrap;shape=isoCube2;backgroundOutline=1;isoAngle=15;" vertex="1" parent="2gGzgF8M-ZaWOMVFMqxc-616">
          <mxGeometry x="55" y="51.23333333333335" width="90" height="96.66666666666667" as="geometry" />
        </mxCell>
        <mxCell id="2gGzgF8M-ZaWOMVFMqxc-621" value="" style="group" vertex="1" connectable="0" parent="2gGzgF8M-ZaWOMVFMqxc-521">
          <mxGeometry x="760" y="440" width="200" height="240" as="geometry" />
        </mxCell>
        <mxCell id="2gGzgF8M-ZaWOMVFMqxc-622" value="" style="rounded=1;whiteSpace=wrap;html=1;perimeterSpacing=0;absoluteArcSize=1;strokeWidth=2;strokeColor=light-dark(#000000,#00994D);" vertex="1" parent="2gGzgF8M-ZaWOMVFMqxc-621">
          <mxGeometry width="200" height="240" as="geometry" />
        </mxCell>
        <mxCell id="2gGzgF8M-ZaWOMVFMqxc-623" value="" style="line;strokeWidth=1;html=1;strokeColor=light-dark(#000000,#00994D);" vertex="1" parent="2gGzgF8M-ZaWOMVFMqxc-621">
          <mxGeometry y="188.5" width="200" height="9.666666666666666" as="geometry" />
        </mxCell>
        <mxCell id="2gGzgF8M-ZaWOMVFMqxc-624" value="&lt;font style=&quot;font-size: 20px;&quot;&gt;Category name&lt;/font&gt;" style="text;strokeColor=none;align=left;fillColor=none;html=1;verticalAlign=middle;whiteSpace=wrap;rounded=0;" vertex="1" parent="2gGzgF8M-ZaWOMVFMqxc-621">
          <mxGeometry x="10" y="203" width="180" height="29" as="geometry" />
        </mxCell>
        <mxCell id="2gGzgF8M-ZaWOMVFMqxc-625" value="" style="html=1;whiteSpace=wrap;shape=isoCube2;backgroundOutline=1;isoAngle=15;" vertex="1" parent="2gGzgF8M-ZaWOMVFMqxc-621">
          <mxGeometry x="55" y="51.23333333333335" width="90" height="96.66666666666667" as="geometry" />
        </mxCell>
        <mxCell id="2gGzgF8M-ZaWOMVFMqxc-580" style="edgeStyle=orthogonalEdgeStyle;rounded=0;orthogonalLoop=1;jettySize=auto;html=1;entryX=0;entryY=0.272;entryDx=0;entryDy=0;entryPerimeter=0;fillColor=#a20025;strokeColor=#6F0000;" edge="1" parent="1" source="2gGzgF8M-ZaWOMVFMqxc-3" target="2gGzgF8M-ZaWOMVFMqxc-521">
          <mxGeometry relative="1" as="geometry">
            <mxPoint x="10" y="1172.424072265625" as="targetPoint" />
          </mxGeometry>
        </mxCell>
        <mxCell id="2gGzgF8M-ZaWOMVFMqxc-626" style="edgeStyle=orthogonalEdgeStyle;rounded=0;orthogonalLoop=1;jettySize=auto;html=1;entryX=0.048;entryY=1.004;entryDx=0;entryDy=0;entryPerimeter=0;fillColor=#a20025;strokeColor=#6F0000;exitX=1;exitY=0.5;exitDx=0;exitDy=0;" edge="1" parent="1" source="2gGzgF8M-ZaWOMVFMqxc-602" target="2gGzgF8M-ZaWOMVFMqxc-387">
          <mxGeometry relative="1" as="geometry" />
        </mxCell>
        <mxCell id="2gGzgF8M-ZaWOMVFMqxc-627" value="" style="strokeWidth=1;shadow=0;dashed=0;align=left;html=1;shape=mxgraph.mockup.containers.browserWindow;rSize=0;strokeColor=#666666;mainText=,;recursiveResize=0;rounded=0;labelBackgroundColor=none;fontFamily=Verdana;fontSize=12;fillColor=light-dark(#FFFFFF, #121212);" vertex="1" parent="1">
          <mxGeometry x="2320" y="-670" width="1060" height="630" as="geometry" />
        </mxCell>
        <mxCell id="2gGzgF8M-ZaWOMVFMqxc-628" value="Page 1" style="strokeWidth=1;shadow=0;dashed=0;align=center;html=1;shape=mxgraph.mockup.containers.anchor;fontSize=17;fontColor=#666666;align=left;" vertex="1" parent="2gGzgF8M-ZaWOMVFMqxc-627">
          <mxGeometry x="60" y="12" width="110" height="26" as="geometry" />
        </mxCell>
        <mxCell id="2gGzgF8M-ZaWOMVFMqxc-629" value="https://www.store.example/cart" style="strokeWidth=1;shadow=0;dashed=0;align=center;html=1;shape=mxgraph.mockup.containers.anchor;rSize=0;fontSize=17;fontColor=#666666;align=left;" vertex="1" parent="2gGzgF8M-ZaWOMVFMqxc-627">
          <mxGeometry x="130" y="60" width="250" height="26" as="geometry" />
        </mxCell>
        <mxCell id="2gGzgF8M-ZaWOMVFMqxc-630" value="Logo" style="rounded=1;whiteSpace=wrap;html=1;fillColor=light-dark(#FFFFFF,#00994D);absoluteArcSize=1;" vertex="1" parent="2gGzgF8M-ZaWOMVFMqxc-627">
          <mxGeometry x="20" y="130" width="70" height="30" as="geometry" />
        </mxCell>
        <mxCell id="2gGzgF8M-ZaWOMVFMqxc-631" value="Catalog" style="rounded=1;whiteSpace=wrap;html=1;strokeColor=light-dark(#000000,#00994D);fillColor=light-dark(#FFFFFF,#00994D);absoluteArcSize=1;" vertex="1" parent="2gGzgF8M-ZaWOMVFMqxc-627">
          <mxGeometry x="100" y="130" width="70" height="30" as="geometry" />
        </mxCell>
        <mxCell id="2gGzgF8M-ZaWOMVFMqxc-632" value="Cart" style="rounded=1;whiteSpace=wrap;html=1;strokeColor=light-dark(#000000,#00994D);fillColor=light-dark(#FFFFFF,#00994D);absoluteArcSize=1;" vertex="1" parent="2gGzgF8M-ZaWOMVFMqxc-627">
          <mxGeometry x="970" y="130" width="70" height="30" as="geometry" />
        </mxCell>
        <mxCell id="2gGzgF8M-ZaWOMVFMqxc-633" value="" style="group" vertex="1" connectable="0" parent="2gGzgF8M-ZaWOMVFMqxc-627">
          <mxGeometry x="180" y="130" width="780" height="30" as="geometry" />
        </mxCell>
        <mxCell id="2gGzgF8M-ZaWOMVFMqxc-634" value="Item 1" style="rounded=1;whiteSpace=wrap;html=1;fillStyle=solid;fillColor=light-dark(#FFFFFF, #121212);fontColor=light-dark(#FFFFFF,#FFFFFF);fontSize=17;align=left;spacingLeft=5;strokeColor=light-dark(#000000,#00994D);strokeWidth=2;absoluteArcSize=1;" vertex="1" parent="2gGzgF8M-ZaWOMVFMqxc-633">
          <mxGeometry width="780" height="30" as="geometry" />
        </mxCell>
        <mxCell id="2gGzgF8M-ZaWOMVFMqxc-635" value="" style="sketch=0;outlineConnect=0;fontColor=#232F3E;gradientColor=none;fillColor=light-dark(#232F3D,#00994D);strokeColor=none;dashed=0;verticalLabelPosition=bottom;verticalAlign=top;align=center;html=1;fontSize=12;fontStyle=0;aspect=fixed;pointerEvents=1;shape=mxgraph.aws4.magnifying_glass_2;" vertex="1" parent="2gGzgF8M-ZaWOMVFMqxc-633">
          <mxGeometry x="750" y="5" width="20" height="20" as="geometry" />
        </mxCell>
        <mxCell id="2gGzgF8M-ZaWOMVFMqxc-639" value="4" style="ellipse;whiteSpace=wrap;html=1;aspect=fixed;" vertex="1" parent="2gGzgF8M-ZaWOMVFMqxc-627">
          <mxGeometry x="1030" y="120" width="20" height="20" as="geometry" />
        </mxCell>
        <mxCell id="2gGzgF8M-ZaWOMVFMqxc-640" value="&lt;font style=&quot;font-size: 18px;&quot;&gt;Buy for total price&lt;/font&gt;" style="rounded=1;whiteSpace=wrap;html=1;absoluteArcSize=1;strokeColor=light-dark(#000000,#00994D);fillColor=light-dark(#FFFFFF,#00994D);" vertex="1" parent="2gGzgF8M-ZaWOMVFMqxc-627">
          <mxGeometry x="660" y="535" width="300" height="40" as="geometry" />
        </mxCell>
        <mxCell id="2gGzgF8M-ZaWOMVFMqxc-650" value="" style="group" vertex="1" connectable="0" parent="2gGzgF8M-ZaWOMVFMqxc-627">
          <mxGeometry x="100" y="185" width="520" height="85" as="geometry" />
        </mxCell>
        <mxCell id="2gGzgF8M-ZaWOMVFMqxc-637" value="" style="rounded=1;whiteSpace=wrap;html=1;perimeterSpacing=0;absoluteArcSize=1;strokeWidth=2;strokeColor=light-dark(#000000,#00994D);" vertex="1" parent="2gGzgF8M-ZaWOMVFMqxc-650">
          <mxGeometry width="520" height="85" as="geometry" />
        </mxCell>
        <mxCell id="2gGzgF8M-ZaWOMVFMqxc-646" value="" style="html=1;whiteSpace=wrap;shape=isoCube2;backgroundOutline=1;isoAngle=15;" vertex="1" parent="2gGzgF8M-ZaWOMVFMqxc-650">
          <mxGeometry x="20" y="7.5" width="60" height="67.5" as="geometry" />
        </mxCell>
        <mxCell id="2gGzgF8M-ZaWOMVFMqxc-647" value="&lt;h1 style=&quot;margin-top: 0px;&quot;&gt;Item name&lt;/h1&gt;&lt;p&gt;About delivery&lt;/p&gt;" style="text;html=1;whiteSpace=wrap;overflow=hidden;rounded=0;" vertex="1" parent="2gGzgF8M-ZaWOMVFMqxc-650">
          <mxGeometry x="100" width="250" height="85" as="geometry" />
        </mxCell>
        <mxCell id="2gGzgF8M-ZaWOMVFMqxc-648" value="&lt;font style=&quot;font-size: 18px;&quot;&gt;Price&lt;/font&gt;" style="rounded=1;whiteSpace=wrap;html=1;absoluteArcSize=1;strokeColor=light-dark(#000000,#00994D);fillColor=light-dark(#FFFFFF,#00994D);" vertex="1" parent="2gGzgF8M-ZaWOMVFMqxc-650">
          <mxGeometry x="370" y="45" width="140" height="30" as="geometry" />
        </mxCell>
        <mxCell id="2gGzgF8M-ZaWOMVFMqxc-649" value="&lt;font style=&quot;font-size: 18px;&quot;&gt;Remove&lt;/font&gt;" style="rounded=1;whiteSpace=wrap;html=1;absoluteArcSize=1;strokeColor=light-dark(#000000,#00994D);fillColor=light-dark(#FFFFFF, #121212);" vertex="1" parent="2gGzgF8M-ZaWOMVFMqxc-650">
          <mxGeometry x="370" y="7.5" width="140" height="30" as="geometry" />
        </mxCell>
        <mxCell id="2gGzgF8M-ZaWOMVFMqxc-651" value="" style="group" vertex="1" connectable="0" parent="2gGzgF8M-ZaWOMVFMqxc-627">
          <mxGeometry x="100" y="290" width="520" height="85" as="geometry" />
        </mxCell>
        <mxCell id="2gGzgF8M-ZaWOMVFMqxc-652" value="" style="rounded=1;whiteSpace=wrap;html=1;perimeterSpacing=0;absoluteArcSize=1;strokeWidth=2;strokeColor=light-dark(#000000,#00994D);" vertex="1" parent="2gGzgF8M-ZaWOMVFMqxc-651">
          <mxGeometry width="520" height="85" as="geometry" />
        </mxCell>
        <mxCell id="2gGzgF8M-ZaWOMVFMqxc-653" value="" style="html=1;whiteSpace=wrap;shape=isoCube2;backgroundOutline=1;isoAngle=15;" vertex="1" parent="2gGzgF8M-ZaWOMVFMqxc-651">
          <mxGeometry x="20" y="7.5" width="60" height="67.5" as="geometry" />
        </mxCell>
        <mxCell id="2gGzgF8M-ZaWOMVFMqxc-654" value="&lt;h1 style=&quot;margin-top: 0px;&quot;&gt;Item name&lt;/h1&gt;&lt;p&gt;About delivery&lt;/p&gt;" style="text;html=1;whiteSpace=wrap;overflow=hidden;rounded=0;" vertex="1" parent="2gGzgF8M-ZaWOMVFMqxc-651">
          <mxGeometry x="100" width="250" height="85" as="geometry" />
        </mxCell>
        <mxCell id="2gGzgF8M-ZaWOMVFMqxc-655" value="&lt;span style=&quot;font-size: 18px;&quot;&gt;Price&lt;/span&gt;" style="rounded=1;whiteSpace=wrap;html=1;absoluteArcSize=1;strokeColor=light-dark(#000000,#00994D);fillColor=light-dark(#FFFFFF,#00994D);" vertex="1" parent="2gGzgF8M-ZaWOMVFMqxc-651">
          <mxGeometry x="370" y="45" width="140" height="30" as="geometry" />
        </mxCell>
        <mxCell id="2gGzgF8M-ZaWOMVFMqxc-656" value="&lt;font style=&quot;font-size: 18px;&quot;&gt;Remove&lt;/font&gt;" style="rounded=1;whiteSpace=wrap;html=1;absoluteArcSize=1;strokeColor=light-dark(#000000,#00994D);fillColor=light-dark(#FFFFFF, #121212);" vertex="1" parent="2gGzgF8M-ZaWOMVFMqxc-651">
          <mxGeometry x="370" y="7.5" width="140" height="30" as="geometry" />
        </mxCell>
        <mxCell id="2gGzgF8M-ZaWOMVFMqxc-657" value="" style="group" vertex="1" connectable="0" parent="2gGzgF8M-ZaWOMVFMqxc-627">
          <mxGeometry x="100" y="390" width="520" height="85" as="geometry" />
        </mxCell>
        <mxCell id="2gGzgF8M-ZaWOMVFMqxc-658" value="" style="rounded=1;whiteSpace=wrap;html=1;perimeterSpacing=0;absoluteArcSize=1;strokeWidth=2;strokeColor=light-dark(#000000,#00994D);" vertex="1" parent="2gGzgF8M-ZaWOMVFMqxc-657">
          <mxGeometry width="520" height="85" as="geometry" />
        </mxCell>
        <mxCell id="2gGzgF8M-ZaWOMVFMqxc-659" value="" style="html=1;whiteSpace=wrap;shape=isoCube2;backgroundOutline=1;isoAngle=15;" vertex="1" parent="2gGzgF8M-ZaWOMVFMqxc-657">
          <mxGeometry x="20" y="7.5" width="60" height="67.5" as="geometry" />
        </mxCell>
        <mxCell id="2gGzgF8M-ZaWOMVFMqxc-660" value="&lt;h1 style=&quot;margin-top: 0px;&quot;&gt;Item name&lt;/h1&gt;&lt;p&gt;About delivery&lt;/p&gt;" style="text;html=1;whiteSpace=wrap;overflow=hidden;rounded=0;" vertex="1" parent="2gGzgF8M-ZaWOMVFMqxc-657">
          <mxGeometry x="100" width="250" height="85" as="geometry" />
        </mxCell>
        <mxCell id="2gGzgF8M-ZaWOMVFMqxc-661" value="&lt;span style=&quot;font-size: 18px;&quot;&gt;Price&lt;/span&gt;" style="rounded=1;whiteSpace=wrap;html=1;absoluteArcSize=1;strokeColor=light-dark(#000000,#00994D);fillColor=light-dark(#FFFFFF,#00994D);" vertex="1" parent="2gGzgF8M-ZaWOMVFMqxc-657">
          <mxGeometry x="370" y="45" width="140" height="30" as="geometry" />
        </mxCell>
        <mxCell id="2gGzgF8M-ZaWOMVFMqxc-662" value="&lt;font style=&quot;font-size: 18px;&quot;&gt;Remove&lt;/font&gt;" style="rounded=1;whiteSpace=wrap;html=1;absoluteArcSize=1;strokeColor=light-dark(#000000,#00994D);fillColor=light-dark(#FFFFFF, #121212);" vertex="1" parent="2gGzgF8M-ZaWOMVFMqxc-657">
          <mxGeometry x="370" y="7.5" width="140" height="30" as="geometry" />
        </mxCell>
        <mxCell id="2gGzgF8M-ZaWOMVFMqxc-663" value="" style="group" vertex="1" connectable="0" parent="2gGzgF8M-ZaWOMVFMqxc-627">
          <mxGeometry x="100" y="490" width="520" height="85" as="geometry" />
        </mxCell>
        <mxCell id="2gGzgF8M-ZaWOMVFMqxc-664" value="" style="rounded=1;whiteSpace=wrap;html=1;perimeterSpacing=0;absoluteArcSize=1;strokeWidth=2;strokeColor=light-dark(#000000,#00994D);" vertex="1" parent="2gGzgF8M-ZaWOMVFMqxc-663">
          <mxGeometry width="520" height="85" as="geometry" />
        </mxCell>
        <mxCell id="2gGzgF8M-ZaWOMVFMqxc-665" value="" style="html=1;whiteSpace=wrap;shape=isoCube2;backgroundOutline=1;isoAngle=15;" vertex="1" parent="2gGzgF8M-ZaWOMVFMqxc-663">
          <mxGeometry x="20" y="7.5" width="60" height="67.5" as="geometry" />
        </mxCell>
        <mxCell id="2gGzgF8M-ZaWOMVFMqxc-666" value="&lt;h1 style=&quot;margin-top: 0px;&quot;&gt;Item name&lt;/h1&gt;&lt;p&gt;About delivery&lt;/p&gt;" style="text;html=1;whiteSpace=wrap;overflow=hidden;rounded=0;" vertex="1" parent="2gGzgF8M-ZaWOMVFMqxc-663">
          <mxGeometry x="100" width="250" height="85" as="geometry" />
        </mxCell>
        <mxCell id="2gGzgF8M-ZaWOMVFMqxc-667" value="&lt;span style=&quot;font-size: 18px;&quot;&gt;Price&lt;/span&gt;" style="rounded=1;whiteSpace=wrap;html=1;absoluteArcSize=1;strokeColor=light-dark(#000000,#00994D);fillColor=light-dark(#FFFFFF,#00994D);" vertex="1" parent="2gGzgF8M-ZaWOMVFMqxc-663">
          <mxGeometry x="370" y="45" width="140" height="30" as="geometry" />
        </mxCell>
        <mxCell id="2gGzgF8M-ZaWOMVFMqxc-668" value="&lt;font style=&quot;font-size: 18px;&quot;&gt;Remove&lt;/font&gt;" style="rounded=1;whiteSpace=wrap;html=1;absoluteArcSize=1;strokeColor=light-dark(#000000,#00994D);fillColor=light-dark(#FFFFFF, #121212);" vertex="1" parent="2gGzgF8M-ZaWOMVFMqxc-663">
          <mxGeometry x="370" y="7.5" width="140" height="30" as="geometry" />
        </mxCell>
        <mxCell id="2gGzgF8M-ZaWOMVFMqxc-669" value="&lt;h1 style=&quot;margin-top: 0px;&quot;&gt;Order&lt;/h1&gt;&lt;p&gt;About delivery, payment and other important stuff&lt;br&gt;&lt;/p&gt;&lt;p&gt;Lorem isum dolor sit amet, consectetur adipiscing elit. Aliquam augue justo, sollicitudin nec posuere quis, vehicula eu justo. Pellentesque ligula diam, pharetra id augue id, viverra rhoncus enim. Sed commodo libero ac nibh vehicula, eu commodo enim suscipit. Mauris turpis orci, condimentum faucibus dui aliquam, rutrum suscipit mi. Sed diam urna, consequat at lobortis quis, pellentesque in neque. Maecenas porta interdum nisi. Nullam vitae tincidunt dolor, ut placerat est.&lt;/p&gt;&lt;p&gt;Cras at consequat mi, et finibus turpis. Vestibulum faucibus diam nec convallis semper. Nam ac ante sagittis, rutrum turpis nec, tristique metus. Proin non nunc at risus accumsan lacinia in nec lectus. Fusce suscipit interdum sollicitudin. Praesent vel velit vel risus volutpat rutrum. Interdum et malesuada fames ac ante ipsum primis in faucibus.&lt;/p&gt;" style="text;html=1;whiteSpace=wrap;overflow=hidden;rounded=0;" vertex="1" parent="2gGzgF8M-ZaWOMVFMqxc-627">
          <mxGeometry x="660" y="185" width="300" height="335" as="geometry" />
        </mxCell>
        <mxCell id="2gGzgF8M-ZaWOMVFMqxc-645" style="edgeStyle=orthogonalEdgeStyle;rounded=0;orthogonalLoop=1;jettySize=auto;html=1;entryX=0.955;entryY=0.999;entryDx=0;entryDy=0;entryPerimeter=0;fillColor=#a20025;strokeColor=#6F0000;" edge="1" parent="1" source="2gGzgF8M-ZaWOMVFMqxc-392" target="2gGzgF8M-ZaWOMVFMqxc-627">
          <mxGeometry relative="1" as="geometry">
            <Array as="points">
              <mxPoint x="3325" y="43" />
              <mxPoint x="3327" y="43" />
            </Array>
          </mxGeometry>
        </mxCell>
      </root>
    </mxGraphModel>
  </diagram>
</mxfile>
